<svg xmlns="http://www.w3.org/2000/svg" viewBox="0 0 40.75 41.46"><defs><style>.cls-1{fill:#fff;}</style></defs><g id="Capa_2" data-name="Capa 2"><g id="logo"><path class="cls-1" d="M32.68,16a2.27,2.27,0,0,1,2.52-2,2.22,2.22,0,0,1,0,4.41,2.25,2.25,0,0,1-2.49-2,2.49,2.49,0,0,1-2.09,2.24,2.46,2.46,0,0,1-2.67-1.33,2.84,2.84,0,0,1-1.55,1.46,2.38,2.38,0,0,1,1.29,1.44,2.3,2.3,0,0,1,0,1.49,2.38,2.38,0,0,1-4.55-.06,2.47,2.47,0,0,1,1.3-2.88A2.85,2.85,0,0,1,23,17.51a2.82,2.82,0,0,1-1.71,1.3,2.34,2.34,0,0,1,1.51,1.49,2.13,2.13,0,0,1,0,1.43,2.25,2.25,0,0,1-4.32-.29,2.16,2.16,0,0,1,.27-1.59,2.37,2.37,0,0,1,1.31-1A2.77,2.77,0,0,1,18.11,17a2.34,2.34,0,0,1-2.92,1.41,2.26,2.26,0,0,1-1.62-2,2.21,2.21,0,0,1,.4-1.49A2.42,2.42,0,0,1,15.21,14,2.6,2.6,0,0,1,15,9.06a2.51,2.51,0,0,1-1.54-2.75,2.43,2.43,0,0,1,1.82-2,2.51,2.51,0,0,1,2.83,1.21,2.83,2.83,0,0,1,2.46-1.61,2.78,2.78,0,0,1,2.56,1.42,2.71,2.71,0,0,1,5,1.13,2.22,2.22,0,0,1,.81-1.4,2,2,0,0,1,1.53-.42,2.1,2.1,0,0,1,1.83,1.81,2.16,2.16,0,0,1-1.63,2.33,2.82,2.82,0,0,1,2.26,2.37,2.06,2.06,0,0,1,2.36-1.67,2,2,0,0,1,0,4,2.08,2.08,0,0,1-2.31-1.61,3.51,3.51,0,0,1-.54,1.22,2.91,2.91,0,0,1-1.08.87A2.62,2.62,0,0,1,32.68,16m-3-7.25A2.26,2.26,0,0,1,28.08,7,2.78,2.78,0,0,1,26.7,9.06a2.93,2.93,0,0,1,1.12,1.09A2.87,2.87,0,0,1,29.7,8.79m-11.61,4A2.69,2.69,0,0,1,16.59,14a5.24,5.24,0,0,1,.63.36,2.73,2.73,0,0,1,.52.5,5.44,5.44,0,0,1,.37.59A2.8,2.8,0,0,1,19.21,14a3.12,3.12,0,0,1-1.12-1.16m0-4.95a2.57,2.57,0,0,1-1.31,1.17c.19.1.36.18.51.28a3.23,3.23,0,0,1,.45.38,4.36,4.36,0,0,1,.35.4c.16-.21.29-.4.44-.57a6.52,6.52,0,0,1,.54-.5,2.94,2.94,0,0,1-1-1.16m9.85,7.25A2.61,2.61,0,0,1,29.09,14a2.84,2.84,0,0,1-1.27-1.15,3.14,3.14,0,0,1-1,1,2.87,2.87,0,0,1,1.14,1.27M22.18,14l.84.9a2.79,2.79,0,0,1,1-1c-.18-.14-.34-.27-.49-.41s-.27-.29-.38-.41l-1,.95m.11-4.94.84.88a4.89,4.89,0,0,1,.44-.47c.16-.15.35-.27.5-.39l-.95-.92-.83.9"/><path class="cls-1" d="M6.4,32.79a2.47,2.47,0,1,1-2.48,2.45A2.47,2.47,0,0,1,6.4,32.79"/><path class="cls-1" d="M32.38,21a2.2,2.2,0,1,1-2.2-2.22A2.21,2.21,0,0,1,32.38,21"/><path class="cls-1" d="M6.4,33a2.47,2.47,0,1,1,2.46-2.48A2.46,2.46,0,0,1,6.4,33"/><path class="cls-1" d="M9.11,6.72a2,2,0,0,1,2.05-2,2.06,2.06,0,1,1,0,4.11,2,2,0,0,1-2-2.06"/><path class="cls-1" d="M36.94,21a2,2,0,1,1-2-2,2,2,0,0,1,2,2"/><path class="cls-1" d="M13.16,11.5a2,2,0,1,1-2-2,2,2,0,0,1,2,2"/><path class="cls-1" d="M18.16,21a2.25,2.25,0,0,1-2.28,2.26A2.28,2.28,0,1,1,18.16,21"/><path class="cls-1" d="M8.29,6.73a1.89,1.89,0,0,1-1.9,1.9,1.91,1.91,0,1,1,1.9-1.9"/><path class="cls-1" d="M9.33,35.25a1.82,1.82,0,0,1,1.81-1.82,1.83,1.83,0,1,1,0,3.65,1.82,1.82,0,0,1-1.83-1.83"/><path class="cls-1" d="M23.73,25.74a1.69,1.69,0,1,1,1.68,1.71,1.7,1.7,0,0,1-1.68-1.71"/><path class="cls-1" d="M19,25.76a1.66,1.66,0,0,1,1.66-1.68,1.68,1.68,0,0,1,1.7,1.68,1.71,1.71,0,0,1-1.69,1.68A1.68,1.68,0,0,1,19,25.76"/><path class="cls-1" d="M14.22,35.25a1.67,1.67,0,1,1,1.67,1.68,1.68,1.68,0,0,1-1.67-1.68"/><path class="cls-1" d="M9.33,30.52a1.83,1.83,0,0,1,1.84-1.83,1.83,1.83,0,1,1-1.84,1.83"/><path class="cls-1" d="M3.24,35.26a1.62,1.62,0,0,1-1.62,1.62,1.63,1.63,0,1,1,0-3.25,1.63,1.63,0,0,1,1.61,1.63"/><path class="cls-1" d="M28.56,25.76a1.62,1.62,0,1,1,1.63,1.61,1.61,1.61,0,0,1-1.63-1.61"/><path class="cls-1" d="M11.15,17.83a1.61,1.61,0,1,1,1.61-1.59,1.6,1.6,0,0,1-1.61,1.59"/><path class="cls-1" d="M22.61,2a2,2,0,0,1-2,1.94,2,2,0,0,1-2-2,2,2,0,0,1,3.93,0"/><path class="cls-1" d="M6.38,13.07A1.58,1.58,0,1,1,8,11.5a1.58,1.58,0,0,1-1.59,1.57"/><path class="cls-1" d="M14.17,2a1.72,1.72,0,0,1,3.44,0,1.72,1.72,0,0,1-3.44,0"/><path class="cls-1" d="M1.63,29A1.5,1.5,0,1,1,.12,30.51,1.49,1.49,0,0,1,1.63,29"/><path class="cls-1" d="M17.56,25.74a1.68,1.68,0,1,1-3.35,0,1.69,1.69,0,0,1,1.67-1.68,1.68,1.68,0,0,1,1.68,1.67"/><path class="cls-1" d="M36.37,25.77a1.46,1.46,0,1,1-1.45-1.47,1.45,1.45,0,0,1,1.45,1.47"/><path class="cls-1" d="M27.13,2A1.72,1.72,0,0,1,23.7,2a1.72,1.72,0,1,1,3.43,0"/><path class="cls-1" d="M31.49,30.53a1.31,1.31,0,0,1-2.62,0,1.31,1.31,0,1,1,2.62,0"/><path class="cls-1" d="M20.64,36.55A1.3,1.3,0,1,1,22,35.27a1.29,1.29,0,0,1-1.31,1.28"/><path class="cls-1" d="M12.44,2a1.29,1.29,0,0,1-1.27,1.29A1.3,1.3,0,0,1,9.86,2a1.29,1.29,0,1,1,2.58,0"/><path class="cls-1" d="M6.38,26.68a.93.93,0,0,1,0-1.85.93.93,0,1,1,0,1.85"/><path class="cls-1" d="M6.36,41.46A1.43,1.43,0,0,1,4.94,40a1.45,1.45,0,0,1,1.47-1.42,1.44,1.44,0,1,1,0,2.88"/><path class="cls-1" d="M6.38,3.2A1.24,1.24,0,1,1,7.63,2,1.23,1.23,0,0,1,6.38,3.2"/><path class="cls-1" d="M2.85,6.72A1.22,1.22,0,0,1,1.64,8a1.24,1.24,0,1,1,0-2.47A1.22,1.22,0,0,1,2.85,6.72"/><path class="cls-1" d="M34.91,29.29a1.22,1.22,0,0,1,1.24,1.22,1.24,1.24,0,1,1-2.47,0,1.23,1.23,0,0,1,1.23-1.23"/><path class="cls-1" d="M15.86,31.9a1.38,1.38,0,1,1,1.42-1.37,1.37,1.37,0,0,1-1.42,1.37"/><path class="cls-1" d="M10.07,21a1.09,1.09,0,1,1,1.08,1.09A1.09,1.09,0,0,1,10.07,21"/><path class="cls-1" d="M40.75,21a1.07,1.07,0,1,1-1.08-1.08A1.08,1.08,0,0,1,40.75,21"/><path class="cls-1" d="M1.62,12.56a1.07,1.07,0,1,1,0-2.14,1.07,1.07,0,1,1,0,2.14"/><path class="cls-1" d="M40.74,16.22a1.06,1.06,0,0,1-1.06,1.07,1.09,1.09,0,0,1-1.07-1.08,1.06,1.06,0,0,1,1.06-1,1,1,0,0,1,1.07,1"/><path class="cls-1" d="M2.68,25.76a1.06,1.06,0,0,1-1.07,1.06,1.07,1.07,0,0,1-1-1.06A1.06,1.06,0,0,1,1.62,24.7a1,1,0,0,1,1.06,1.06"/><path class="cls-1" d="M16.93,40a1,1,0,1,1-1-1,1,1,0,0,1,1,1"/><path class="cls-1" d="M33.34,6.69a1.58,1.58,0,0,1,3.16,0A1.59,1.59,0,0,1,34.87,8.3a1.57,1.57,0,0,1-1.53-1.61"/><path class="cls-1" d="M20.66,39.05a1,1,0,0,1,1,1,1,1,0,1,1-1-1"/><path class="cls-1" d="M12.24,40a1.09,1.09,0,0,1-1.11,1.1,1.1,1.1,0,0,1,0-2.2,1.09,1.09,0,0,1,1.1,1.1"/><path class="cls-1" d="M1.63,40.94A.92.92,0,0,1,.71,40a.89.89,0,0,1,.89-.91.92.92,0,0,1,.95.9.93.93,0,0,1-.92.93"/><path class="cls-1" d="M30.17,36.16a.89.89,0,0,1-.89-.92.91.91,0,0,1,1.81,0,.92.92,0,0,1-.92.9"/><path class="cls-1" d="M25.4,36.16a.89.89,0,0,1-.88-.92.9.9,0,1,1,.88.92"/><path class="cls-1" d="M11.14,24.87a.89.89,0,1,1-.88.9.88.88,0,0,1,.88-.9"/><path class="cls-1" d="M25.41,29.7a.82.82,0,0,1,0,1.64.82.82,0,1,1,0-1.64"/><path class="cls-1" d="M1.63,1.16a.8.8,0,1,1,0,1.6.79.79,0,0,1-.78-.82.8.8,0,0,1,.81-.78"/><path class="cls-1" d="M39.69,25a.74.74,0,1,1-.74.72.74.74,0,0,1,.74-.72"/><path class="cls-1" d="M21.34,30.52a.69.69,0,0,1-.69.69.7.7,0,0,1-.69-.69.69.69,0,1,1,1.38,0"/><path class="cls-1" d="M7.32,16.24a.94.94,0,0,1-.93.92,1,1,0,0,1-.94-.92,1,1,0,0,1,1-.95.94.94,0,0,1,.91.95"/><path class="cls-1" d="M35.52,35.27a.61.61,0,0,1-1.21,0,.62.62,0,0,1,.62-.59.6.6,0,0,1,.59.62"/><path class="cls-1" d="M30.19,2.76a.8.8,0,1,1,0-1.6.8.8,0,0,1,0,1.6"/><path class="cls-1" d="M25.94,40a.53.53,0,0,1-.53.53.54.54,0,0,1-.53-.54.53.53,0,0,1,.52-.51.52.52,0,0,1,.54.52"/><path class="cls-1" d="M39.66,10.76a.73.73,0,0,1,.06,1.46.73.73,0,1,1-.06-1.46"/><path class="cls-1" d="M2.21,16.21a.58.58,0,0,1-.57.59.58.58,0,0,1,0-1.15.59.59,0,0,1,.6.56"/><path class="cls-1" d="M6.41,20.38A.61.61,0,0,1,7,21a.62.62,0,0,1-.64.59.6.6,0,0,1-.6-.63.61.61,0,0,1,.64-.59"/><path class="cls-1" d="M2.23,21a.6.6,0,0,1-.6.61A.63.63,0,0,1,1,21a.61.61,0,0,1,.59-.59.59.59,0,0,1,.63.59"/><path class="cls-1" d="M39.67,30.23a.28.28,0,0,1,.29.28.29.29,0,0,1-.26.3.29.29,0,1,1,0-.58"/><path class="cls-1" d="M30.4,40a.85.85,0,0,1-.22.16c-.09,0-.17-.08-.16-.18s.08-.16.17-.14a1.05,1.05,0,0,1,.21.16"/></g></g></svg>