<?xml version="1.0" encoding="UTF-8"?>
<svg id="Capa_2" data-name="Capa 2" xmlns="http://www.w3.org/2000/svg" viewBox="0 0 446.4 68.4">
  <defs>
    <style>
      .cls-1 {
        fill: #fff;
      }
    </style>
  </defs>
  <g id="Capa_1-2" data-name="Capa 1">
    <path class="cls-1" d="M17,18.5c-.3-1.3-.2-2.6,0-3.4.4-2,1.8-4.3,5.8-4.3s5.9,2.3,5.9,5.8v3.9h15.9v-4.5C44.6,2.2,32.1,0,23,0S2.4,3.8.8,14.2c-.5,2.9-.5,5.4.1,8.6,2.8,13,25.4,16.8,28.7,25.1.6,1.5.4,3.5.1,4.7-.5,2.1-2,4.3-6.2,4.3s-6.4-2.3-6.4-5.8v-6.1H0v4.9c0,14.3,11.2,18.6,23.2,18.6s21-3.9,22.5-14.6c.8-5.5.2-9.1,0-10.4-2.7-13.4-26.9-17.4-28.7-24.8ZM224.5,18.6c-.3-1.3-.2-2.6,0-3.3.5-2,1.8-4.3,5.8-4.3s5.8,2.3,5.8,5.7v3.9h15.7v-4.4c0-13.7-12.3-15.9-21.3-15.9s-20.4,3.7-22.1,14.1c-.4,2.8-.6,5.3.2,8.5,2.7,12.9,25.2,16.6,28.4,24.8.6,1.5.4,3.5.1,4.7-.5,2.1-1.9,4.3-6.1,4.3s-6.4-2.3-6.4-5.7v-6.1h-16.9v4.9c0,14.1,11,18.4,22.9,18.4s20.8-3.9,22.3-14.5c.7-5.5.2-9-.1-10.3-2.6-13.2-26.6-17.2-28.4-24.6ZM369.4,53.4l-15-51.4h-23.7v63.1h15.7l-.9-53,16.1,53h22.7V2h-15.8l.9,51.4ZM68.3,2l-11.8,63.8h17.2l8.9-59.1,8.7,59.1h17.1L96.7,2h-28.4ZM164.7,2l-8.1,49.9-8-49.9h-26l-1.4,63.8h15.9l.4-59.1,11,59.1h16.2l11-59.1.4,59.1h16l-1.4-63.8h-26ZM313,2h-16.1v47.2c0,.8,0,1.7-.1,2.4-.3,1.6-1.7,4.6-6.1,4.6s-5.8-3-6.1-4.6c-.2-.7-.2-1.6-.2-2.4V2h-16.1v45.7c0,1.2,0,3.6.1,4.2,1.1,11.9,10.5,15.8,22.2,15.8s21.1-3.9,22.3-15.8c0-.6.2-3,.1-4.2V2ZM423.8,30v9.3h6.5v9.2c0,.8,0,1.7-.2,2.4-.3,1.7-1.9,4.7-6.5,4.7s-6.2-2.9-6.5-4.7c-.1-.7-.2-1.6-.2-2.4v-29.2c0-1,0-2.2.3-3,.3-1.6,1.7-4.6,6.3-4.6s6.1,3.2,6.4,4.6c.2.9.2,2.5.2,2.5v3.5h16.1v-2.1s0-2.2-.1-4.2c-1.2-12-11.1-15.8-22.4-15.8s-21,3.8-22.4,15.8c-.1,1.1-.3,3.1-.3,4.2v26.8c0,1.2,0,2.1.3,4.2,1,11.6,11.1,15.8,22.4,15.8s21.4-4.1,22.4-15.8c.2-2.1.2-3,.2-4.2v-17.1h-22.6Z"/>
  </g>
</svg>