<?xml version="1.0" encoding="UTF-8"?>
<svg id="Capa_2" data-name="Capa 2" xmlns="http://www.w3.org/2000/svg" viewBox="0 0 252.1 104.4">
  <defs>
    <style>
      .cls-1 {
        fill: #fff;
      }
    </style>
  </defs>
  <g id="Capa_1-2" data-name="Capa 1">
    <g>
      <path class="cls-1" d="M251.8,75.1c.8,2.4-.3,3.9-2.7,4.2l-13.8,1.6c-2.1.2-3.7-.6-4.2-2.6l-12-47.5c-.4-1.1-1.3-1-1.4.2l-2.3,49.1c-.1,2-1.4,3.2-3.5,3.4l-9.9,1.1c-2.1.2-3.6-.6-4.1-2.6l-13.2-47.3c-.4-1.1-1.3-1-1.4.2l-1.1,49c0,2-1.4,3.2-3.5,3.4l-13.8,1.6c-2.4.3-3.7-1-3.6-3.5l5.8-75.7c.1-2,1.4-3.2,3.5-3.4l16.3-1.8c2.1-.2,3.5.7,4.2,2.6l9.6,27.7c.4,1.1,1.3,1,1.4-.2l3.1-29.1c.2-2,1.4-3.2,3.5-3.4L225.1,0c2.1-.2,3.6.6,4.2,2.6l22.6,72.5Z"/>
      <path class="cls-1" d="M.2,29.3c-.7-2.4.3-3.9,2.7-4.2l13.8-1.6c2.1-.2,3.7.6,4.2,2.6l12,47.5c.4,1.1,1.3,1,1.4-.2l2.3-49.1c.1-2,1.4-3.2,3.5-3.4l9.9-1.1c2.1-.2,3.6.6,4.2,2.6l13.2,47.3c.4,1.1,1.3,1,1.4-.2l1.1-49c0-2,1.4-3.2,3.5-3.4l13.8-1.6c2.4-.3,3.7,1,3.5,3.5l-5.8,75.7c-.1,2-1.4,3.2-3.5,3.4l-16.3,1.9c-2.1.2-3.5-.7-4.2-2.6l-9.6-27.7c-.4-1.1-1.3-1-1.4.2l-3.1,29.1c-.2,2-1.4,3.2-3.5,3.5l-16.3,1.8c-2.1.2-3.6-.6-4.2-2.6L.2,29.3Z"/>
      <path class="cls-1" d="M116,61.8c-.7,9.1-.6,14.6,8,13.6,8.6-1,9.6-6.6,10.3-15.7l1.4-17c.7-9.1.6-14.6-8-13.6-8.6,1-9.6,6.6-10.3,15.7l-1.3,17ZM98,40.8c.6-7.8,3.9-28.9,31.3-32,27.4-3.1,27.4,17.6,26.7,25.4l-2.4,29.5c-.6,7.8-3.9,28.9-31.3,32-27.4,3.1-27.4-17.6-26.7-25.4l2.4-29.5Z"/>
    </g>
  </g>
</svg>