<?xml version="1.0" encoding="UTF-8"?>
<svg id="Capa_2" data-name="Capa 2" xmlns="http://www.w3.org/2000/svg" viewBox="0 0 276.6 108.5">
  <defs>
    <style>
      .cls-1 {
        fill-rule: evenodd;
      }

      .cls-1, .cls-2, .cls-3 {
        fill: #fff;
      }

      .cls-3 {
        font-family: Montserrat-Regular, Montserrat;
        font-size: 15.9px;
      }

      .cls-4 {
        letter-spacing: 0em;
      }
    </style>
  </defs>
  <g id="Capa_1-2" data-name="Capa 1">
    <g>
      <g>
        <path class="cls-2" d="M43.2,58.4c0,.8.2,1.4.2,2,0,.7.1.9.1.9,0,.3.2.4.2.4.1.1.3.2.3.3l-1.1-5.6c0,.7.1,1.4.2,2.1Z"/>
        <path class="cls-2" d="M46,47.1c-1.5,1.2-3,2.5-4.3,3.8h0c1.4-1.4,2.9-2.7,4.3-3.8Z"/>
        <path class="cls-2" d="M41.7,50.9h0s0,0,0,0c-6.1,6.1-10.7,14-13.1,24.1-2.7,11.3,2.4,11.4,5.6,4,2.7-6.3,6.5-18.3,9.1-17.7,2.6.6-1.1,11.2-1.1,20.9,0,12.1,2.1,16.2,5.9,1,2.6-10.3,4.7-20.8,6.5-31.2-3.7-1-8-1.5-13-1.1Z"/>
        <path class="cls-2" d="M61,13.1c-.4-.6-.8-1-1.1-1.2,0,.6.4,1.5,1.1,2.8,0-.6,0-1.2,0-1.6Z"/>
        <path class="cls-2" d="M56.7,40.4c1.2-7.2,2.4-14.3,3.7-21.5-.6-1-1.1-1.9-1.5-2.7-.8-1.4-1.3-2.7-1.5-3.8-.4.9-.8,2.1-1.1,3.5-4.9,24-12,27.1-30.3,32.9-8.6,2.7-5.2,7,3.4,4.6,4.2-1.2,8.3-2,12.3-2.4,1.4-1.4,2.8-2.6,4.3-3.8,3.6-2.9,7.1-5.1,10.6-6.7Z"/>
        <path class="cls-2" d="M41,38.7c5.4,1.5,7.3-8.5,1.8-10-5.4-1.5-7.3,8.5-1.8,10Z"/>
        <path class="cls-2" d="M103.3,66.9c-.4-3.3-1.2-6.5-2.5-9.5-1.6.9-4,0-6.4-2.6-.9-.9-1.9-2.1-2.9-3.3-1.7-2-4.6-5.3-6.2-6.5.4,1.1,1.4,2.9,2.2,4.3,1.3,2.5,3,5.5,4.1,8.6,2.6,7.3,2.3,9.2.9,9.9-.3.1-.5.2-.8.2-1.3,0-3-1.5-6.4-6.7-3.9-5.9-8-12.5-12.7-20.8h0c-.2-.5-.5-.9-.7-1.3l-.7-1.3h0c-.2-.3-.3-.6-.5-.9-4.4.1-9.1,1.2-13.9,3.4,0,.1,0,.2,0,.3-3.8,1.7-7.3,3.9-10.6,6.4-1.4,1.2-2.9,2.4-4.3,3.8,4.5-.5,8.9-.6,13.2-.3,0,.5-.2,1-.3,1.4,11.8,3.3,17.1,12.9,17.1,22.1,0,12.8-10.7,22.6-26,20.5-26.6-3.7-43.1-30.7-36-56C19.5,4.4,65.6-5.6,87.6,16.9c1.8,2,5.2.3,2.2-3.2C62-11.7,15.7-.8,2.7,37.9c-10,29.6,9.1,61.8,39.3,68.8,38.5,8.9,63.9-17.1,61.3-39.9Z"/>
        <path class="cls-2" d="M41.7,50.9h0c5-.3,9.3,0,13,1.1,0-.5.2-1,.3-1.4-4.3-.3-8.7-.2-13.2.3Z"/>
        <path class="cls-2" d="M56.6,40.7c0-.1,0-.2,0-.3-3.5,1.6-7.1,3.8-10.6,6.7,3.3-2.5,6.8-4.7,10.6-6.4Z"/>
        <path class="cls-2" d="M97.7,55.5s0,0,0,0c0-.1,0-.2,0-.3,0,.1,0,.2,0,.3Z"/>
        <g>
          <path class="cls-1" d="M62.7,12.3c9.8,16.2,15.8,16.6,30.6,16,7-.3,5.6,3.8-1.3,4.2-3.4.2-6.5.7-9.5,1.4,6,2.8,11.4,7.4,15.8,14.1,4.9,7.5,1.2,8.9-3,4.4-3.6-3.9-9.4-11.6-11.2-10.5-1.7,1.1,3.7,7.9,6.2,14.9,3.2,8.8,2.6,12.3-4,2.3-4.5-6.8-8.7-13.7-12.7-20.7h0s0,0,0,0c-.2-.4-.5-.8-.7-1.2,0,0,0,0,0,0-3.4-6-10.1-17.9-12.9-22.9-3.1-5.4-.6-7.8,2.9-1.9Z"/>
          <path class="cls-1" d="M79.7,24.9c-3.6,2.5-7.5-4.3-3.9-6.8,3.6-2.5,7.5,4.3,3.9,6.8Z"/>
        </g>
      </g>
      <g>
        <path class="cls-2" d="M141.3,28.5v20.2h-1.2l-13.8-17.6v17.6h-1.5v-20.2h1.2l13.8,17.6v-17.6h1.5Z"/>
        <path class="cls-2" d="M150.5,40.1v-11.7h1.5v11.6c0,5.1,2.4,7.4,6.6,7.4s6.6-2.4,6.6-7.4v-11.6h1.5v11.7c0,5.8-3.1,8.7-8.1,8.7s-8.1-2.9-8.1-8.7Z"/>
        <path class="cls-2" d="M189.9,47.4v1.3h-14v-20.2h13.5v1.3h-12.1v8h10.8v1.3h-10.8v8.3h12.5Z"/>
        <path class="cls-2" d="M195.5,46.1l.7-1.1c1.4,1.4,4,2.5,6.7,2.5,4,0,5.8-1.8,5.8-4,0-6.1-12.6-2.4-12.6-9.9s2.2-5.4,7.2-5.4,4.5.7,6.1,1.8l-.5,1.2c-1.7-1.2-3.7-1.7-5.6-1.7-3.9,0-5.7,1.8-5.7,4,0,6.1,12.6,2.5,12.6,9.8s-2.3,5.3-7.3,5.3-5.9-1.1-7.4-2.7Z"/>
        <path class="cls-2" d="M221.1,29.8h-7.3v-1.3h16v1.3h-7.3v18.9h-1.5v-18.9Z"/>
        <path class="cls-2" d="M249.8,48.7l-4.8-6.8c-.6,0-1.3.1-2,.1h-5.8v6.6h-1.5v-20.2h7.3c5.1,0,8.2,2.5,8.2,6.8s-1.7,5.4-4.7,6.3l5.1,7.1h-1.7ZM243,40.8c4.3,0,6.6-2,6.6-5.5s-2.3-5.5-6.6-5.5h-5.8v11h5.8Z"/>
        <path class="cls-2" d="M271.4,43h-11.7l-2.6,5.7h-1.6l9.3-20.2h1.5l9.3,20.2h-1.6l-2.6-5.7ZM270.9,41.8l-5.3-11.7-5.3,11.7h10.6Z"/>
        <g>
          <path class="cls-2" d="M142.6,69h6.1v11.7c-3.2,2.4-7.5,3.7-11.6,3.7-9.1,0-15.7-6.2-15.7-14.9s6.7-14.9,15.8-14.9,9.3,1.7,12.1,5l-4.3,3.9c-2.1-2.2-4.5-3.3-7.4-3.3-5.6,0-9.4,3.7-9.4,9.2s3.8,9.2,9.3,9.2,3.5-.3,5.2-1.2v-8.4Z"/>
          <path class="cls-2" d="M180.5,78.5v5.3h-22.3v-28.8h21.8v5.3h-15.1v6.3h13.4v5.2h-13.4v6.7h15.7Z"/>
          <path class="cls-2" d="M215.5,55v28.8h-5.5l-14.4-17.5v17.5h-6.6v-28.8h5.5l14.3,17.5v-17.5h6.6Z"/>
          <path class="cls-2" d="M231.6,60.4h-9.2v-5.4h25.1v5.4h-9.2v23.4h-6.7v-23.4Z"/>
          <path class="cls-2" d="M276.6,78.5v5.3h-22.3v-28.8h21.8v5.3h-15.1v6.3h13.4v5.2h-13.4v6.7h15.7Z"/>
        </g>
        <text class="cls-3" transform="translate(123.2 20.4)"><tspan class="cls-4" x="0" y="0">P</tspan><tspan x="11.3" y="0">REMIOS</tspan></text>
        <rect class="cls-2" x="203.8" y="16" width="71.6" height=".3"/>
        <rect class="cls-2" x="122" y="95.1" width="154.7" height=".3"/>
      </g>
    </g>
  </g>
</svg>