<?xml version="1.0" encoding="UTF-8"?>
<svg id="Capa_2" data-name="Capa 2" xmlns="http://www.w3.org/2000/svg" viewBox="0 0 24 24.1">
  <g id="header">
    <g>
      <path d="M6.2,0c3.9,0,7.8,0,11.7,0,.2,0,.5,0,.7.1,2.7.6,4.5,2.3,5.2,5,0,.4.1.7.2,1.1v11.7c0,0,0,.2,0,.3-.2.6-.2,1.3-.5,1.9-1.2,2.6-3.3,4-6.1,4-3.6,0-7.1,0-10.7,0-1.4,0-2.7-.4-3.8-1.2C1,21.5,0,19.6,0,17.3,0,13.8,0,10.3,0,6.8c0-.5,0-.9.1-1.4C.7,2.7,2.4.9,5.1.2c.4,0,.7-.1,1.1-.2ZM21.9,12c0-1.7,0-3.5,0-5.2,0-.5,0-1.1-.2-1.6-.7-1.9-2.3-3.1-4.4-3.1-3.5,0-7,0-10.5,0-.5,0-1.1,0-1.6.2-1.9.6-3.1,2.3-3.1,4.4,0,3.5,0,7,0,10.5,0,.5,0,1.1.2,1.6.7,1.9,2.3,3,4.4,3.1,3.5,0,7,0,10.6,0,1.6,0,2.8-.6,3.8-1.9.6-.8.8-1.7.8-2.7,0-1.7,0-3.5,0-5.2Z"/>
      <path d="M18.2,12c0,3.4-2.8,6.2-6.2,6.2-3.4,0-6.2-2.8-6.2-6.2,0-3.4,2.8-6.2,6.2-6.2,3.4,0,6.2,2.8,6.2,6.2ZM16.1,12c0-2.2-1.8-4.1-4.1-4.1-2.2,0-4.1,1.8-4.1,4.1,0,2.2,1.8,4.1,4.1,4.1,2.2,0,4.1-1.8,4.1-4.1Z"/>
      <path d="M18.5,4c.9,0,1.6.7,1.5,1.6,0,.9-.7,1.6-1.6,1.5-.8,0-1.5-.8-1.5-1.6,0-.9.7-1.6,1.6-1.5Z"/>
    </g>
  </g>
</svg>