<?xml version="1.0" encoding="UTF-8"?>
<svg id="Capa_2" data-name="Capa 2" xmlns="http://www.w3.org/2000/svg" viewBox="0 0 31.5 34.1">
  <g id="menu">
    <path d="M1.7,31.8c0-9.9,0-19.7,0-29.6,0-.5,0-.5.5-.5,2.1,0,4.1,0,6.2,0,0,0,.2,0,.2,0,0,0,0,0,.1,0h0v.5c0,.9,0,1.8,0,2.7,0,2.2,0,4.4,0,6.6,0,.6.2,1.2.6,1.6.4.4.9.6,1.5.6h0c2.2,0,4.4,0,6.6,0,.9,0,1.8,0,2.7,0h.5v5.6h1.7s0,0,0,0c0,0,0,0,0,0v-.3c0-2.2,0-4.5,0-6.8,0,0,0-.2-.1-.3C18.3,7.7,14.5,3.9,10.8.1c0,0-.2-.1-.3-.1C7.8,0,5,0,1.9,0c-.7,0-1.2.3-1.6.9-.2.3-.3.7-.3,1.2,0,8.5,0,17,0,25.6v4.3c0,0,0,.1,0,.2,0,.9.6,1.6,1.4,1.8,0,0,0,0,.1,0,0,0,0,0,0,0h11.2v-1.7H2.3c-.5,0-.5,0-.5-.5ZM10.6,2.5h.1c0,.1,9.3,9.4,9.3,9.4h-.1s0,0,0,0c0,0-.2,0-.2,0-1.6,0-3.3,0-4.9,0s-2.3,0-3.5,0c-.5,0-.5,0-.5-.5V2.5Z"/>
    <path d="M31.1,20.1c-.9-1-1.8-1.8-2.6-2.6-.6-.6-1.5-.6-2.1,0-2.8,2.8-6.5,6.4-10.1,10.1-.2.2-.3.4-.4.7-.3,1.2-.7,2.4-1,3.6l-.3.9c-.2.7,0,.9.5,1.3h.4s0,0,0,0c0,0,0,0,.2,0,.4-.1.8-.2,1.3-.4,1-.3,2.1-.6,3.2-.9.3,0,.6-.3.8-.5,1.8-1.8,3.7-3.7,5.5-5.4l2.1-2.1c.8-.8,1.7-1.7,2.5-2.5.6-.6.7-1.5,0-2.1ZM27.1,23.7s0,.1-.1.2l-.8.8c-2,2-4.1,4.1-6.2,6.2-.1.1-.3.2-.5.3-.7.2-1.3.4-2,.6l-.8.2h0c0-.2,0-.4.1-.5,0-.3.2-.5.2-.8.2-1.2.8-2.2,2-3.3,1.4-1.3,2.8-2.7,4.1-4.1.5-.5,1.1-1.1,1.6-1.6,0,0,0-.1.2-.2,0,0,0,0,.1-.1h0c0,0,2.2,2.3,2.2,2.3h0ZM28.3,22.3l-2.1-2.2,1.1-1.2,2.2,2.2-1.3,1.1Z"/>
    <path d="M6.2,16.1c-.6,0-1.3,0-1.9,0v1.7c4.6,0,9.1,0,13.7,0v-1.7c-1.7,0-3.4,0-5,0h-6.8Z"/>
    <path d="M17.8,22.3c.4,0,.7,0,1.1,0v-2c-4.8,0-9.7,0-14.5,0v2c2,0,3.9,0,5.9,0h7.1s.5,0,.5,0Z"/>
    <path d="M7.7,28.5c-1.1,0-2.2,0-3.3,0v1.7c.7,0,1.4,0,2.2,0h.9c.3,0,.6,0,.9,0,.7,0,1.4,0,2.1,0v-1.7c-.3,0-.6,0-.9,0h-1.9Z"/>
    <path d="M7.4,24.4c-.3,0-.6,0-.9,0-.7,0-1.5,0-2.2,0v1.7c1.2,0,2.4,0,3.7,0,.8,0,1.6,0,2.4,0v-1.7c-.7,0-1.5,0-2.2,0h-.7Z"/>
  </g>
</svg>