<?xml version="1.0" encoding="UTF-8"?>
<svg id="Capa_2" data-name="Capa 2" xmlns="http://www.w3.org/2000/svg" viewBox="0 0 35.2 35.3">
  <g id="menu">
    <g id="_1WOus5" data-name="1WOus5">
      <g>
        <path d="M28.7,21.6c-.2,0-.4,0-.5,0-.3,0-.7,0-1.1,0s0,0,0,0c0-.7,0-1.4.2-2,.3-1.3,1.6-1.9,3-1.7,1.7.3,3,1.9,2.9,3.6-.1,1.9-1.5,3.3-3.4,3.4-1,0-2,0-3.1,0-2.2-.1-3.6-2-3.3-4.2.2-1,.5-2,1.1-2.8,1.5-2.1,2.4-4.4,2.4-6.9,0-4.5-3.1-8.4-7.5-9.2-5.2-.9-9.9,2.1-11,7.2-.7,3,.2,5.8,1.9,8.3.7,1.1,1.4,2.2,1.6,3.5.3,2.3-1.3,4.2-3.6,4.2-.9,0-1.8,0-2.7,0-1.9,0-3.5-1.7-3.4-3.6,0-2,1.7-3.5,3.6-3.4,1.1,0,2.1.8,2.3,1.9.1.6.1,1.2.2,1.8s0,0,0,0h-1.6s0,0,0,0c0-.3,0-.7,0-1,0-.8-.5-1.2-1.3-1-1,.2-1.6,1.1-1.5,2.1,0,1,.8,1.7,1.8,1.7.9,0,1.9,0,2.8,0,1.1,0,2-1,2-2.1s-.4-1.8-.9-2.5c-1.5-2-2.5-4.3-2.8-6.8C6.1,6.6,9.6,1.6,14.8.3c7.2-1.8,14,3.8,13.6,11.2-.1,2.6-1,4.9-2.5,7.1-.5.8-.9,1.6-1,2.5s.9,2.2,2.1,2.3,1.8,0,2.7,0c1,0,1.8-.8,1.9-1.8,0-1.1-.7-1.9-1.7-2-.6,0-1,.3-1.1.9,0,.4,0,.8,0,1.2Z"/>
        <path d="M20.1,32.3h1.6s0,0,0,.1c0,.1,0,.3,0,.4.4,1,1.2.8,2,.8.8,0,1.2-.2,1.5-.8.3-.7-.2-1.3-1.1-1.6-1-.3-1.9-.6-2.8-1.1-1.6-.9-2.8-2.3-3.7-4s0,0,0,0c-.4.7-.8,1.3-1.3,1.9-1.4,1.7-3.1,2.8-5.2,3.2-.2,0-.3,0-.5.1-.5.2-.8.6-.7,1.2,0,.6.5,1,1.1,1.1.3,0,.6,0,.8,0,1.4,0,1.6-.2,1.8-1.6s0,0,0,0h1.4s0,0,0,0c.4,1.3-.6,2.9-2,3.1-.8.1-1.7.1-2.5,0-1.2-.2-2.1-1.3-2.2-2.5,0-1.4.7-2.5,2-2.9.6-.2,1.2-.3,1.8-.6,2.8-1.3,4.4-3.5,4.7-6.6,0-.1,0-.2,0-.4h1.5s0,0,0,0c0,.5,0,.9.2,1.4.7,3.2,2.7,5.3,5.9,6.1,2.3.6,3.1,2.8,1.8,4.6-1,1.3-4.7,1.3-5.6-.1-.4-.6-.6-1.1-.5-1.8Z"/>
        <path d="M13.5,21.5h1.5s0,0,0,0c.1.9,0,1.8-.3,2.7-.8,2.3-3,3.9-5.5,4-1.3,0-2.6,0-3.9,0-1.9,0-3.3,1.2-3.7,3.1-.2,1.2.5,2.3,1.6,2.4,1.1.1,1.9-.7,2-2,0-.1,0-.3,0-.5h1.4s0,0,0,0c.4,1.7-.9,3.7-2.7,4-2,.3-3.9-1.1-4-3-.2-3,2.1-5.5,5.2-5.6,1.2,0,2.4,0,3.6,0,2.9,0,4.7-1.8,4.7-4.6,0-.1,0-.2,0-.4Z"/>
        <path d="M30,31.2s0,0,0,0c0,.2,0,.4,0,.7,0,1.1.9,1.8,1.9,1.8,1,0,1.7-.9,1.7-1.9,0-1.9-1.6-3.5-3.5-3.6-1.3,0-2.7,0-4,0-3.4,0-5.9-2.6-6.1-5.9,0-.2,0-.5,0-.7s0,0,0,0h1.5s0,0,0,0c0,.5,0,1,.2,1.5.4,2.1,2.1,3.5,4.3,3.5,1.5,0,3.1,0,4.6,0,2.6.2,4.5,2.6,4.5,5.2,0,2.1-1.7,3.6-3.8,3.4-1.9-.2-3.3-2-3-4s0,0,0,0h1.4Z"/>
        <path d="M25.1,10.9h-1.4s0,0,0,0c-.4-3.6-2.5-5.6-6-6,0,0,0,0,0,0v-1.4s0,0,0,0c3.5-.7,7.7,3.5,7.5,7.5s0,0,0,0Z"/>
      </g>
    </g>
  </g>
</svg>