<?xml version="1.0" encoding="UTF-8"?>
<svg id="Capa_2" data-name="Capa 2" xmlns="http://www.w3.org/2000/svg" xmlns:xlink="http://www.w3.org/1999/xlink" viewBox="0 0 589.3 96.9">
  <defs>
    <style>
      .cls-1 {
        clip-path: url(#clippath-1);
      }

      .cls-2 {
        clip-path: url(#clippath-2);
      }

      .cls-3 {
        fill: #fff;
      }

      .cls-4 {
        clip-path: url(#clippath);
      }
    </style>
    <clipPath id="clippath">
      <path class="cls-3" d="M60.6,0v11.4h-24v64.2h-12.7V11.4H0V0h60.6Z"/>
    </clipPath>
    <clipPath id="clippath-1">
      <path class="cls-3" d="M103,75.6v-7c-4.1,5.1-10.7,7.6-19,7.6-12.4,0-20.2-7.7-20.2-17.8s7.9-17.2,21.7-17.3h17.4v-1.7c0-7.2-4.6-11.6-13.7-11.6s-11.2,1.9-17,5.8l-5.1-8.6c8-4.8,13.8-7.2,24.7-7.2s23.1,7.6,23.2,20.2v37.7c.1,0-12.1,0-12.1,0ZM102.9,55.4v-5.3h-15.6c-8.1,0-11.9,2.2-11.9,7.7s4.2,8.5,11.1,8.5,15.7-4.6,16.3-10.9Z"/>
    </clipPath>
    <clipPath id="clippath-2">
      <path class="cls-3" d="M181.6,18.1v51.8c0,16.5-11.8,26.9-29.8,26.9s-16.9-2.8-23.9-7.6l5.3-9c5.4,4,11,6.3,18,6.3,10.9,0,18-6.4,18-16.3v-7.2c-3.9,6.3-10.4,9.7-19,9.7-15.6,0-25.9-11.2-25.9-27.8s10.3-27.2,25.5-27.3c8.9-.1,15.4,3.5,19.4,9.7v-9.3h12.3ZM169.2,45.4c0-10.4-6.8-17.6-16.5-17.6s-16.6,7.3-16.7,17.6c.1,10.4,6.8,17.7,16.7,17.7s16.5-7.3,16.5-17.7Z"/>
    </clipPath>
  </defs>
  <g id="Capa_1-2" data-name="Capa 1">
    <g>
      <g>
        <path class="cls-3" d="M270.4,12.9c-4.1-4.1-10.8-4.1-14.9,0l-45.5,45.5,14.9,14.9,38-38.1c8.2-8.2,21.6-8.2,29.8,0l-22.3-22.3Z"/>
        <path class="cls-3" d="M293.7,36.3c-8.3-7.5-21-7.3-29,.7l36.2,36.2,14.9-14.9-22-22.1Z"/>
        <path class="cls-3" d="M355.1,70.2c4.1,4.1,10.8,4.1,14.9,0l45.5-45.5-14.9-14.9-38,38.1c-8.2,8.2-21.6,8.2-29.8,0l22.3,22.3Z"/>
        <path class="cls-3" d="M331.8,46.8c8.3,7.5,21,7.3,29-.7l-36.2-36.2-14.9,14.9,22,22.1Z"/>
        <path class="cls-3" d="M467.6,12.9c-4.1-4.1-10.8-4.1-14.9,0l-45.5,45.5,14.9,14.9,38-38.1c8.2-8.2,21.6-8.2,29.8,0l-22.3-22.3Z"/>
        <path class="cls-3" d="M490.9,36.3c-8.3-7.5-21-7.3-29,.7l36.2,36.2,14.9-14.9-22-22.1Z"/>
        <path class="cls-3" d="M524.4,62.7c0,5.8,4.7,10.5,10.5,10.5h54.4s0-21,0-21h-43.9c-11.6,0-21.1-9.4-21.1-21v31.5Z"/>
        <path class="cls-3" d="M524.4,29.6c.6,11.1,9.7,20,21,20V9.8s-21,0-21,0v19.8Z"/>
      </g>
      <g>
        <g>
          <path class="cls-3" d="M60.6,0v11.4h-24v64.2h-12.7V11.4H0V0h60.6Z"/>
          <g class="cls-4">
            <rect class="cls-3" x="-9" y="-5.8" width="72.8" height="81.9"/>
          </g>
        </g>
        <g>
          <path class="cls-3" d="M103,75.6v-7c-4.1,5.1-10.7,7.6-19,7.6-12.4,0-20.2-7.7-20.2-17.8s7.9-17.2,21.7-17.3h17.4v-1.7c0-7.2-4.6-11.6-13.7-11.6s-11.2,1.9-17,5.8l-5.1-8.6c8-4.8,13.8-7.2,24.7-7.2s23.1,7.6,23.2,20.2v37.7c.1,0-12.1,0-12.1,0ZM102.9,55.4v-5.3h-15.6c-8.1,0-11.9,2.2-11.9,7.7s4.2,8.5,11.1,8.5,15.7-4.6,16.3-10.9Z"/>
          <g class="cls-1">
            <rect class="cls-3" x="54.4" y="-4.3" width="76.5" height="98"/>
          </g>
        </g>
        <g>
          <path class="cls-3" d="M181.6,18.1v51.8c0,16.5-11.8,26.9-29.8,26.9s-16.9-2.8-23.9-7.6l5.3-9c5.4,4,11,6.3,18,6.3,10.9,0,18-6.4,18-16.3v-7.2c-3.9,6.3-10.4,9.7-19,9.7-15.6,0-25.9-11.2-25.9-27.8s10.3-27.2,25.5-27.3c8.9-.1,15.4,3.5,19.4,9.7v-9.3h12.3ZM169.2,45.4c0-10.4-6.8-17.6-16.5-17.6s-16.6,7.3-16.7,17.6c.1,10.4,6.8,17.7,16.7,17.7s16.5-7.3,16.5-17.7Z"/>
          <g class="cls-2">
            <rect class="cls-3" x="117.2" y="5.4" width="78.5" height="103.9"/>
          </g>
        </g>
      </g>
    </g>
  </g>
</svg>