<?xml version="1.0" encoding="UTF-8"?>
<svg id="Capa_2" data-name="Capa 2" xmlns="http://www.w3.org/2000/svg" viewBox="0 0 380.3 80.9">
  <defs>
    <style>
      .cls-1 {
        fill: #fff;
      }
    </style>
  </defs>
  <g id="Capa_1-2" data-name="Capa 1">
    <g>
      <path class="cls-1" d="M9.5,74.5l2-14.1h-7.1c-3.1,0-5-1.9-4.3-5l.5-2.7c.6-3.1,2.5-5,5.6-5h7.2l2.1-14.6h-7.8c-3.1,0-5-1.9-4.3-5l.5-2.7c.6-3.1,2.5-5,5.6-5h7.8l2-13.9c.6-4.1,3.1-6.3,7.2-6.3h5.4c4.1,0,5.9,2.2,5.4,6.3l-2,13.9h13.6l2-13.9c.6-4.1,3.1-6.3,7.2-6.3h5.4c4.1,0,5.9,2.2,5.4,6.3l-2,13.9h6.1c3.2,0,5.1,1.9,4.5,5l-.5,2.7c-.6,3.1-2.6,5-5.7,5h-6.1l-2.1,14.6h6.7c3.2,0,5.1,1.9,4.5,5l-.5,2.7c-.6,3.1-2.6,5-5.7,5h-6.8l-2,14.1c-.5,4.1-3.1,6.3-7.3,6.3h-5.3c-4.1,0-5.9-2.2-5.4-6.3l2-14.1h-13.6l-2,14.1c-.5,4.1-3.1,6.3-7.2,6.3h-5.4c-4.1,0-5.9-2.2-5.4-6.3M45.1,47.8l2.1-14.6h-13.6l-2.1,14.6h13.6Z"/>
      <g>
        <g>
          <path class="cls-1" d="M135.8,34.6c-3.2-3.2-8.3-3.2-11.4,0l-34.9,34.9,11.4,11.4,29.2-29.2c6.3-6.3,16.5-6.3,22.9,0l-17.1-17.1Z"/>
          <path class="cls-1" d="M153.7,52.5c-6.3-5.7-16.1-5.6-22.2.6l27.7,27.8,11.4-11.4-16.9-16.9Z"/>
          <path class="cls-1" d="M200.8,78.5c3.2,3.2,8.3,3.2,11.4,0l34.9-34.9-11.4-11.4-29.2,29.2c-6.3,6.3-16.5,6.3-22.9,0l17.1,17.1Z"/>
          <path class="cls-1" d="M182.9,60.5c6.3,5.7,16.1,5.6,22.2-.6l-27.7-27.8-11.4,11.4,16.9,16.9Z"/>
          <path class="cls-1" d="M287,34.6c-3.2-3.2-8.3-3.2-11.4,0l-34.9,34.9,11.4,11.4,29.2-29.2c6.3-6.3,16.5-6.3,22.9,0l-17.1-17.1Z"/>
          <path class="cls-1" d="M304.9,52.5c-6.3-5.7-16.1-5.6-22.2.6l27.7,27.8,11.4-11.4-16.9-16.9Z"/>
          <path class="cls-1" d="M330.5,72.7c0,4.5,3.6,8.1,8.1,8.1h41.7s0-16.1,0-16.1h-33.6c-8.9,0-16.2-7.2-16.2-16.1v24.1Z"/>
          <path class="cls-1" d="M330.6,47.4c.4,8.5,7.5,15.3,16.1,15.3v-30.5s-16.1,0-16.1,0v15.2Z"/>
        </g>
        <g>
          <path class="cls-1" d="M89.1,24.2V.4h17.6v4.6h-11.6v5h10.2v4.7h-10.2v5h11.6v4.6h-17.6Z"/>
          <path class="cls-1" d="M112.3,24.2l8.7-12L112.6.4h7.1l4.9,7.1,5-7.1h7.1l-8.4,11.8,8.7,12h-7.2l-5.1-7.2-5.1,7.2h-7.2Z"/>
          <path class="cls-1" d="M143.7,24.2V.4h11.7c1.9,0,3.5.4,4.7,1.1,1.2.8,2.2,1.8,2.8,3.1.6,1.3.9,2.7.9,4.3s-.3,3.1-1,4.3c-.7,1.3-1.7,2.2-2.9,2.9-1.3.7-2.8,1.1-4.5,1.1h-5.6v7h-6ZM149.7,12.6h4.3c1.3,0,2.2-.3,2.8-1s.9-1.6.9-2.7-.3-2.2-.9-2.9c-.6-.7-1.5-1-2.7-1h-4.5v7.7Z"/>
          <path class="cls-1" d="M170.7,24.2V.4h17.6v4.6h-11.6v5h10.2v4.7h-10.2v5h11.6v4.6h-17.6Z"/>
          <path class="cls-1" d="M195.6,24.2V.4h11.9c2.8,0,4.9.7,6.2,2.2,1.3,1.5,2,3.5,2,6s-.4,3-1.2,4.2c-.8,1.2-1.9,2.1-3.3,2.7.3.3.6.6.8.9.2.3.4.8.7,1.4l2.8,6.4h-6.2l-2.7-6.1c-.2-.5-.5-.9-.9-1.1-.3-.2-.8-.4-1.5-.4h-2.7v7.5h-6ZM201.6,12.1h4.4c1.2,0,2.1-.3,2.7-.9.7-.6,1-1.5,1-2.6,0-2.4-1.1-3.6-3.4-3.6h-4.7v7.1Z"/>
          <path class="cls-1" d="M223.3,24.2V.4h6v23.8h-6Z"/>
          <path class="cls-1" d="M237.5,24.2V.4h17.6v4.6h-11.6v5h10.2v4.7h-10.2v5h11.6v4.6h-17.6Z"/>
          <path class="cls-1" d="M262.5,24.2V.4h5.1l10.1,14.2V.4h6v23.8h-5.1l-10.1-14.2v14.2h-6Z"/>
          <path class="cls-1" d="M304.1,24.6c-4.2,0-7.3-1.1-9.5-3.2s-3.3-5.1-3.3-8.9,1.1-7,3.2-9.2c2.1-2.2,5.3-3.3,9.6-3.3s2.8.1,3.9.3c1.1.2,2.3.5,3.3.9v5.2c-2.1-.9-4.4-1.3-6.8-1.3s-4.3.6-5.4,1.8c-1.1,1.2-1.7,3-1.7,5.6s.6,4.2,1.8,5.3c1.2,1.1,3,1.7,5.4,1.7s2.3-.1,3.4-.3c1.1-.2,2.2-.5,3.3-1v5.3c-1,.3-2.1.6-3.3.8-1.2.2-2.5.3-3.9.3Z"/>
          <path class="cls-1" d="M318.8,24.2V.4h6v23.8h-6Z"/>
          <path class="cls-1" d="M332.3,24.2L341.4.4h6.4l9.1,23.8h-6.2l-2.1-5.4h-8l-2.1,5.4h-6.2ZM341.5,14.4h6.3l-3.2-8.3-3.1,8.3Z"/>
          <path class="cls-1" d="M370.4,24.6c-1.6,0-3.1-.1-4.4-.4s-2.5-.6-3.5-1v-5.1c1.1.5,2.3.9,3.6,1.1,1.3.3,2.6.4,3.8.4s2.6-.1,3.3-.4c.7-.3,1.1-.9,1.1-1.8s-.2-1.1-.5-1.5c-.4-.4-.9-.7-1.7-1-.8-.3-1.9-.6-3.3-1-1.6-.5-2.9-1-3.9-1.6-1-.6-1.7-1.3-2.1-2.2-.4-.9-.6-1.9-.6-3.2,0-2.3.8-4,2.4-5.2,1.6-1.2,4-1.8,7.2-1.8s2.7.1,4,.3c1.3.2,2.4.4,3.2.7v5.1c-1.1-.4-2.1-.7-3.2-.9-1.1-.2-2.1-.3-3.1-.3s-2.4.1-3.2.4c-.8.2-1.2.8-1.2,1.7s.1.9.4,1.2c.3.3.8.6,1.5.8.7.2,1.7.5,3,.9,1.9.5,3.4,1.1,4.5,1.9,1,.7,1.8,1.6,2.1,2.5.4,1,.6,2,.6,3.2,0,2.1-.8,3.8-2.4,5.1-1.6,1.3-4.1,1.9-7.5,1.9Z"/>
        </g>
      </g>
    </g>
  </g>
</svg>