<?xml version="1.0" encoding="UTF-8"?>
<svg id="Capa_2" data-name="Capa 2" xmlns="http://www.w3.org/2000/svg" viewBox="0 0 597.9 114.4">
  <defs>
    <style>
      .cls-1 {
        fill: #fff;
      }
    </style>
  </defs>
  <g id="Capa_1-2" data-name="Capa 1">
    <g>
      <path class="cls-1" d="M193.7,64c-11.3,0-20.1,8.5-20.1,19.4s7.7,19.1,19.9,19.1,7.9-2.2,8.8-3.5c.1-.2.3-.3.6-.3.4,0,.7.3.7.7v1.5c0,.5.4.9.9.9h8.3c.5,0,.9-.4.9-.9v-17.8c0-10.7-8.8-19.1-20-19.1ZM193.7,92.2c-4.8,0-8.4-3.8-8.4-9s2.6-8.7,8.3-8.7,8.4,3.8,8.4,9-2.6,8.8-8.3,8.8ZM289.2,65.5v35.4c0,.5-.4.9-.9.9h-10c-.5,0-.9-.4-.9-.9v-35.4c0-.5.4-.9.9-.9h10c.5,0,.9.4.9.9ZM289.4,52.7v8.9c0,.5-.4.9-.9.9h-10.6c-.5,0-.9-.4-.9-.9v-8.9c0-.5.4-.9.9-.9h10.6c.5,0,.9.4.9.9ZM355.8,64c-11.3,0-20.1,8.5-20.1,19.4s8.8,19.1,19.9,19.1,20.1-8.5,20.1-19.4-8.8-19.1-19.9-19.1ZM355.7,74.4c4.8,0,8.4,3.8,8.4,9s-2.6,8.8-8.3,8.8-8.4-3.8-8.4-9,2.6-8.7,8.3-8.7ZM418.8,64c-10.5,0-18.8,8.3-18.8,19.4s8.5,19.1,19.8,19.1,10.9-1.2,14.9-2.9c.4-.2.6-.6.5-1.1l-2.5-7.7c0-.2-.2-.4-.5-.5-.2-.1-.5-.1-.7,0-3.2,1.2-5.2,2.4-11,2.4s-8-2.3-8.5-5.2h24.7c.5,0,.8-.4.9-.8,0-.9.1-1.9.1-2.7,0-9.3-5.6-20.1-18.9-20.1ZM411.9,79.6c.3-3.5,3.7-5.8,7-5.8s7.1,2.5,7.2,5.8h-14.2ZM451.2,83.1c0,5.2,3.6,9,9.4,9s5.9-.6,8.9-1.8c.2,0,.4,0,.6,0,.2.1.4.3.4.5l2.3,7.7c.1.4,0,.9-.4,1.1-3.6,1.7-7.2,2.9-12.9,2.9-11.2,0-20-8.4-20-19.1s8.8-19.4,20.1-19.4h0c5.7,0,9.3,1.2,12.9,2.9.4.2.6.7.4,1.1l-2.3,7.7c0,.2-.2.4-.4.5-.2.1-.4.1-.6,0-2.9-1.2-4.9-1.8-9.1-1.8-6.8,0-9.3,4.5-9.3,8.7ZM555.4,52.7v8.9c0,.5-.4.9-.9.9h-10.6c-.5,0-.9-.4-.9-.9v-8.9c0-.5.4-.9.9-.9h10.6c.5,0,.9.4.9.9ZM555.1,65.5v35.4c0,.5-.4.9-.9.9h-10c-.5,0-.9-.4-.9-.9v-35.4c0-.5.4-.9.9-.9h10c.5,0,.9.4.9.9ZM492.7,64c-11.3,0-20.1,8.5-20.1,19.4s7.8,19.1,19.9,19.1,7.9-2.2,8.8-3.5c.1-.2.3-.3.6-.3.4,0,.7.3.7.7v1.5c0,.5.4.9.9.9h8.3c.5,0,.9-.4.9-.9v-17.8c0-10.7-8.8-19.1-19.9-19.1ZM492.7,92.2c-4.8,0-8.4-3.8-8.4-9s2.6-8.7,8.3-8.7,8.4,3.8,8.4,9-2.6,8.8-8.3,8.8ZM578,64c-11.3,0-20.1,8.5-20.1,19.4s7.8,19.1,19.9,19.1,7.9-2.2,8.8-3.5c.1-.2.3-.3.6-.3.4,0,.7.3.7.7v1.5c0,.5.4.9.9.9h8.3c.5,0,.9-.4.9-.9v-17.8c0-10.7-8.8-19.1-19.9-19.1ZM578,92.2c-4.8,0-8.4-3.8-8.4-9s2.6-8.7,8.3-8.7,8.4,3.8,8.4,9-2.6,8.8-8.3,8.8ZM316.1,64c-.2,0-.3,0-.5,0-4.4.2-7.5,2.3-8.4,3.5-.1.2-.3.3-.6.3-.4,0-.7-.3-.7-.7h0v-1.6c0-.5-.4-.9-.9-.9h-10c-.5,0-.9.4-.9.9v45.9c0,.5.4.9.9.9h10c.5,0,.9-.4.9-.9v-12.2c0-.4.3-.7.7-.7s.4.1.6.3c.9,1.2,4,3.4,8.4,3.5.2,0,.3,0,.5,0,8.4,0,17-6.6,17-19.3s-8.5-19.1-17-19.1ZM313.6,92.2c-4.5,0-7.7-3.7-7.7-9s3.2-8.9,7.7-8.9,7.8,3.8,7.8,9-3.3,8.9-7.8,8.9ZM541,64.9v10.5c0,.5-.4.9-.9.9h-2.3c-6.5,0-9.9,4-9.9,11.6v13.1c0,.5-.4.9-.9.9h-10c-.5,0-.9-.4-.9-.9v-35.4c0-.5.4-.9.9-.9h10c.5,0,.9.4.9.9v1.7h0c0,.4.3.6.7.6s.4-.1.6-.3c2.4-2.7,5.2-3.5,8.9-3.5h2c.5,0,.8.4.8.9ZM400.1,65.5v8.6c0,.5-.4.9-.9.9h-5c-.4,0-.7.3-.7.7v25.2c0,.5-.4.9-.9.9h-10c-.5,0-.9-.4-.9-.9v-25.2c0-.4-.3-.7-.7-.7h-4.4c-.5,0-.9-.4-.9-.9v-8.6c0-.5.4-.9.9-.9h4.4c.4,0,.7-.3.7-.7v-7.5c0-.5.4-.9.9-.9h10c.5,0,.9.4.9.9v7.5c0,.4.3.7.7.7h5c.5,0,.9.4.9.9ZM272.8,53.5v47.3c0,.5-.4.9-.9.9h-10.4c-.5,0-.9-.4-.9-.9v-17.4c0-.4-.3-.7-.7-.7h-18c-.4,0-.7.3-.7.7v17.4c0,.5-.4.9-.9.9h-10.4c-.5,0-.9-.4-.9-.9v-47.3c0-.5.4-.9.9-.9h10.4c.5,0,.9.4.9.9v17.2c0,.4.3.7.7.7h18c.4,0,.7-.3.7-.7v-17.2c0-.5.4-.9.9-.9h10.4c.5,0,.9.4.9.9ZM172.4,90.5c.5,0,.9.4.9.9v9.5c0,.5-.4.9-.9.9h-30.8c-.5,0-.9-.4-.9-.9v-47.3c0-.5.4-.9.9-.9h10.4c.5,0,.9.4.9.9v36.1c0,.5.4.9.9.9h18.6Z"/>
      <g>
        <path class="cls-1" d="M109.7,47L58.7,1.2c-1.7-1.5-4.6-1.5-6.4,0L1.2,47c-.8.7-1.2,1.6-1.2,2.7,0,2,1.6,3.6,3.6,3.6h12.1v34.4c21-26,46.4-34.4,79.5-34.4h12.1c2,0,3.6-1.6,3.6-3.6s-.5-2-1.2-2.7Z"/>
        <path class="cls-1" d="M33.2,114.4h58.5c2,0,3.6-1.6,3.6-3.6v-27.9c-26.2,0-48.2,7.7-62.1,31.5Z"/>
        <path class="cls-1" d="M15.7,107.4v3.4c0,2,1.6,3.6,3.6,3.6h1.5c14.2-30.1,42.5-42.4,74.4-42.4v-7.7c-33.8,0-63.1,12.5-79.5,43.2Z"/>
      </g>
    </g>
  </g>
</svg>