<?xml version="1.0" encoding="UTF-8"?>
<svg id="Capa_2" data-name="Capa 2" xmlns="http://www.w3.org/2000/svg" viewBox="0 0 381.1 106.5">
  <defs>
    <style>
      .cls-1 {
        fill: #fff;
      }
    </style>
  </defs>
  <g id="Capa_1-2" data-name="Capa 1">
    <g>
      <path class="cls-1" d="M60.7,45.8c-4.1-4.1-10.8-4.1-15,0L0,91.5l14.9,15,38.2-38.3c8.3-8.3,21.7-8.3,30,0l-22.4-22.4Z"/>
      <path class="cls-1" d="M61.3,12.7h15c0,.4,0,.8,0,1.4,0,4-1.3,7.3-3.8,10-2.6,2.7-5.8,4-9.7,4s-7.3-1.4-10-4.1c-2.7-2.7-4.1-6.1-4.1-10s1.3-7.3,4-10c2.7-2.7,6.1-4.1,10-4.1,6,0,10.8,2.9,12.8,7.8l-2.9,1c-1.9-3.8-5.5-5.9-9.9-5.9s-5.6,1.1-7.7,3.2c-2.1,2.1-3.1,4.7-3.1,7.8s1.1,5.7,3.2,7.9c2.1,2.1,4.7,3.2,7.8,3.2s5.2-.9,7.1-2.7c1.9-1.8,3-4,3.4-6.8h-12v-2.9Z"/>
      <path class="cls-1" d="M100.3,7.6l-.2,3c-.2,0-.7,0-1.2,0-5.1,0-8,3.8-8,9.4v7.7h-3.1V7.7h3.1v4.9c1.9-3.4,4.5-5.1,8-5.1s1.1,0,1.4.2"/>
      <path class="cls-1" d="M128.1,7.7v19.9h-3.1v-3.2c-1.7,2.5-4.2,3.8-7.5,3.8s-4.3-.8-5.8-2.3c-1.5-1.6-2.2-3.6-2.2-6.1V7.7h3.1v11.4c0,3.7,2.2,6.2,5.5,6.2s6.9-2.9,6.9-8V7.7h3.1Z"/>
      <path class="cls-1" d="M158.7,10.1c2,1.9,2.9,4.4,2.9,7.5s-1,5.6-2.9,7.6c-1.9,1.9-4.3,2.9-7,2.9s-6.1-1.2-7.9-3.7v10h-3.1V7.7h3.1v3.2c1.9-2.5,4.5-3.7,7.9-3.7s5.1,1,7,2.9M156.5,23.3c1.4-1.4,2.1-3.3,2.1-5.6s-.7-4.2-2.1-5.6c-1.4-1.4-3.2-2.1-5.3-2.1s-3.7.7-5.2,2.2c-1.5,1.4-2.2,3.3-2.2,5.6s.7,4.1,2.2,5.6c1.5,1.4,3.2,2.1,5.2,2.1s3.9-.7,5.3-2.1"/>
      <path class="cls-1" d="M188.8,10.2c2.1,1.9,3.1,4.4,3.1,7.4s-1,5.5-3.1,7.5c-2,2-4.5,2.9-7.5,2.9s-5.5-1-7.6-2.9c-2-2-3-4.5-3-7.5s1-5.5,3-7.4c2.1-2,4.6-3,7.6-3s5.5,1,7.5,3M186.6,23.2c1.5-1.5,2.2-3.3,2.2-5.6s-.7-4.1-2.2-5.5c-1.5-1.5-3.2-2.2-5.3-2.2s-3.9.7-5.4,2.2c-1.5,1.4-2.2,3.3-2.2,5.5s.7,4.1,2.2,5.6c1.5,1.5,3.3,2.2,5.4,2.2s3.8-.7,5.3-2.2"/>
      <path class="cls-1" d="M84.2,69.4c-8.3-7.5-21.1-7.3-29.1.7l36.3,36.4,14.9-15-22.1-22.2Z"/>
      <path class="cls-1" d="M145.8,103.4c4.1,4.1,10.8,4.1,15,0l45.8-45.7-14.9-15-38.2,38.3c-8.3,8.3-21.7,8.3-29.9,0l22.4,22.4Z"/>
      <path class="cls-1" d="M122.4,79.9c8.3,7.5,21.1,7.3,29.1-.7l-36.3-36.4-14.9,15,22.1,22.2Z"/>
      <path class="cls-1" d="M258.8,45.8c-4.1-4.1-10.8-4.1-15,0l-45.8,45.7,14.9,15,38.2-38.3c8.3-8.3,21.7-8.3,29.9,0l-22.4-22.4Z"/>
      <path class="cls-1" d="M282.3,69.4c-8.3-7.5-21.1-7.3-29.1.7l36.3,36.4,14.9-15-22.1-22.2Z"/>
      <path class="cls-1" d="M315.9,95.8c0,5.9,4.7,10.6,10.6,10.6h54.7s0-21.1,0-21.1h-44.1c-11.7,0-21.2-9.4-21.2-21.1v31.6Z"/>
      <path class="cls-1" d="M315.9,62.6c.6,11.2,9.8,20.1,21.1,20.1v-40s-21.1,0-21.1,0v19.9Z"/>
    </g>
  </g>
</svg>