<?xml version="1.0" encoding="UTF-8"?>
<svg id="Capa_2" data-name="Capa 2" xmlns="http://www.w3.org/2000/svg" viewBox="0 0 537.6 47.7">
  <defs>
    <style>
      .cls-1 {
        fill: #fff;
      }
    </style>
  </defs>
  <g id="Capa_1-2" data-name="Capa 1">
    <g>
      <path class="cls-1" d="M208.4,0c-.6,3-1.2,6-1.8,9-9.6-1.9-19.1-.8-28.5-1.1-1.1,0-1.7.3-2.2,1.4-1.4,3.2-2.9,6.3-4.5,9.8,9.6-.3,19,.7,28.5-1.3-1.6,3.5-3.1,6.8-4.7,10.1-8.5-2-17.1-.9-25.7-1.2-1.2,0-1.8.3-2.3,1.4-1.6,3.7-3.3,7.3-5.2,11.4,10.8-.4,21.4.8,32.1-1.2-2,2.9-3.9,5.7-6,8.5-.3.4-1.2.5-1.8.5-18.6,0-37.1,0-55.7,0-7.4,0-14.7,0-22.1,0-.6,0-1.2,0-2,0-1.6-6.6-3.2-13.1-4.9-19.9-2.7,1.7-5.2,3.2-7.7,4.8-.2.1-.3.3-.4.5-1.9,4.7-5.2,9-4.9,14.6h-27.2c0,0,0-.2,0-.2,4.3-4.2,6.1-9.9,8.6-15.2,3.7-7.9,7.3-15.8,10.9-23.7C82.2,5.4,83.1,2.8,82.8,0h27.8c-2.5,2.2-4.3,5-5.7,8-1.7,3.8-3.5,7.6-5.2,11.5-.2.4-.3.8-.5,1.3.4-.1.5-.1.7-.2,7.9-4.9,15.9-9.9,23.8-14.8C125.9,4.4,127.6,2.6,128.3,0h21.7c-9.5,3.3-17.4,9.3-26.3,14,3.8,10.3,6.2,20.9,11,30.7,1.3-1.7,2.5-3.5,3.3-5.3,2.4-5.1,4.8-10.3,7.1-15.4,2.7-5.9,5.4-11.7,8-17.6.9-2,1.7-4.1.9-6.3C172.2,0,190.3,0,208.4,0Z"/>
      <path class="cls-1" d="M460,0c2.3,0,4.5.3,6.7.8.2,0,.4.1.6.2,3.6,1.1,5.1,3.4,3.7,6.8-1.8,4.6-3.8,9.1-6.1,13.5-2,3.8-5.8,5-9.8,5.3-.6,0-1.1,0-1.7.1,0,0,0,0-.3.2,1.2,6.6,2.5,13.3,3.7,20.2-.3,0-.9,0-1.4,0-7.7,0-15.4,0-23.1,0-1.5,0-1.9-.5-2-1.9-.5-6.1-1.1-12.3-1.7-18.6-2.3,0-4.5,0-6.7,0-.4,0-1,.5-1.2.9-2,4.4-4.1,8.7-6,13.2-.8,1.9-1,4-1.6,6.2h-26.9s0-.2,0-.2c4.6-4.3,6.3-10.3,8.9-15.7,3.6-7.5,7-15.2,10.5-22.8.6-1.4,1.3-2.9,1.6-4.4.2-1.2-.2-2.6-.4-3.9,17.7,0,35.4,0,53.1,0ZM424.9,18.9c5.2,0,10,0,14.8,0,1.9,0,3.2-.9,3.9-2.7.8-1.9,1.7-3.8,2.6-5.7.9-2,.7-2.6-1.6-2.6-4.6-.1-9.2,0-13.7,0-.4,0-1,.2-1.1.5-1.6,3.4-3.2,6.8-4.9,10.5Z"/>
      <path class="cls-1" d="M345.2,0c-3,2.7-4.8,6.2-6.4,9.8-4.4,9.7-9,19.4-13.3,29.1-1.1,2.5-1.7,5.2-2.7,8.1h-26.8c5.6-5.7,7.4-13.4,11.2-20.4h-2.7c-4.6,0-9.3,0-13.9,0-.9,0-1.4.2-1.8,1.1-1.9,4.3-4,8.5-5.8,12.9-.8,2-1.1,4.2-1.7,6.4h-27c.2-.2.3-.5.4-.7,1.6-2.4,3.5-4.6,4.7-7.1,5-10.6,9.8-21.2,14.7-31.8,1.1-2.4,1.9-4.8,1.6-7.5h27.8c-2.4,2.1-4.2,4.7-5.5,7.6-1.5,3.2-2.9,6.3-4.4,9.5-.2.5-.4,1.1-.7,1.9,5.8,0,11.5,0,17.1,0,.4,0,.9-.6,1.1-1,1.8-3.9,3.7-7.8,5.3-11.8.7-1.9.7-4,1-6,9.3,0,18.6,0,27.8,0Z"/>
      <path class="cls-1" d="M537.6,0c-1,3-2,6.1-3,9.2-1.6-.4-3.2-1.1-4.8-1.1-9.4-.2-18.9-.3-28.3-.2-2.8,0-5,2.5-5.3,5.3,0,.4.3.9.7,1.1.7.2,1.5.3,2.2.3,6.7,0,13.3,0,20,.1,2.2,0,4.4.4,6.5,1,3.4,1,4.8,3.4,3.4,6.7-2.4,5.7-4.9,11.4-7.9,16.7-2.8,5-7.8,7.1-13.4,7.7-1.8.2-3.7.3-5.6.3-13.5,0-26.9,0-40.4,0h-2.1c.8-3.2,1.5-6.2,2.2-9.1,2.6.4,5.2,1.2,7.7,1.2,8.9.1,17.8,0,26.6,0,1.5,0,2.6-.7,3.2-2.2.4-1,.9-2,1.4-3,.6-1.2.1-1.7-.9-1.9-.9-.1-1.9-.1-2.9-.1-6.8,0-13.6,0-20.4,0-1.8,0-3.6-.2-5.4-.6-3-.7-4.1-2.5-3.5-5.5.2-1,.5-2.1.9-3,1.7-3.9,3.4-7.7,5.2-11.5,2.9-6.2,7.8-9.9,14.6-10.9,0,0,0,0,0,0C489.5.2,490.6,0,491.7,0c15.3,0,30.6,0,45.9,0Z"/>
      <path class="cls-1" d="M77,0c-.7,3.1-1.3,6.2-2.1,9.5-3.9-1.7-7.9-1.6-11.9-1.6-7.1,0-14.2,0-21.4.1-2.5,0-5.3,2.9-5.1,5.4,0,.4.9,1,1.4,1.1,1.9.2,3.8.1,5.7.2,6.7.2,13.4.3,20.1.5.8,0,1.5.3,2.3.6,3.2,1.2,4.6,3.4,3.3,6.4-2.5,5.9-5.2,11.8-8.3,17.4-2.6,4.5-7.3,6.4-12.3,7.1-1.9.3-3.8.3-5.7.4-14.2,0-28.4,0-42.6,0l-.5-.7c.8-2.9,1.6-5.8,2.4-8.6,1.9.4,3.7,1.2,5.5,1.2,9,.2,18.1.1,27.1.3,2.7,0,4.3-1.1,5.3-3.6,1.4-3.5,1.4-3.8-2.4-3.8-7.1,0-14.1,0-21.2,0-1.7,0-3.4-.2-5-.6-3.2-.7-4.3-2.5-3.6-5.7.2-1,.5-2,.9-2.9,1.8-4.1,3.6-8.1,5.5-12.1,2.4-4.9,6.2-8.2,11.5-9.7.2,0,.4-.1.6-.2C29.1.3,31.6,0,34.1,0c14.3,0,28.6,0,42.9,0Z"/>
      <path class="cls-1" d="M401.5,0c-.8,3-1.5,5.9-2.3,8.9-9.6-1.9-19.1-.7-28.6-1-.5,0-1.4.4-1.6.8-1.5,3.1-3,6.3-4.4,9.5,0,.1,0,.3,0,.7,9.3-.3,18.6.8,28.1-1.2-1.6,3.5-3.2,6.8-4.7,10.1-8.8-2-17.6-.9-26.3-1.1-.5,0-1.2.4-1.4.8-1.8,3.8-3.5,7.6-5.5,11.9,10.8-.4,21.4.8,32.1-1.2-2,2.9-3.9,5.7-5.9,8.4-.3.4-1.2.5-1.8.5-11.6,0-23.3,0-34.9,0-6.2,0-12.3,0-18.7,0,.4-.5.7-.8.9-1.2,1.4-2.1,3.1-4.1,4.1-6.3,5.1-10.7,10-21.5,14.9-32.3,1.1-2.3,2.3-4.7,1.4-7.4C365.1,0,383.3,0,401.5,0Z"/>
      <path class="cls-1" d="M269.5,0c-.9,3.7-1.8,7.4-2.7,11.2-5.8-2.2-11.6-1.3-17.4-1.5-2.8,0-5.7,0-8.5,0-2.2,0-3.8.9-4.7,2.9-3.3,7-6.5,14.1-9.7,21.1-.2.5-.4.9-.5,1.4-.4,1.4,0,2.1,1.6,2.3.2,0,.3,0,.5,0,7.4-.2,14.8-.4,22.2-.7,2.1,0,4.1-.6,6.4-.9-2.6,3.7-5,7.3-7.5,10.8-.3.3-1,.5-1.5.5-12.9,0-25.9,0-38.8,0-1.7,0-3.5-.3-5.2-.7-4.1-1.1-5.7-3.8-4.9-7.9.4-1.7,1-3.5,1.7-5.1,2.9-6.6,6-13.1,9-19.6,3.6-7.9,9.5-12.7,18.3-13.5,0,0,0,0,.1,0C229.2,0,230.5,0,231.8,0c12.6,0,25.1,0,37.7,0Z"/>
      <g>
        <g>
          <path class="cls-1" d="M524.4,47.5c-1.8,0-3.3-1.5-3.3-3.3s1.5-3.3,3.3-3.3,3.3,1.5,3.3,3.3-1.5,3.3-3.3,3.3Z"/>
          <path class="cls-1" d="M524.4,41.2c1.7,0,3.1,1.4,3.1,3.1s-1.4,3.1-3.1,3.1-3.1-1.4-3.1-3.1,1.4-3.1,3.1-3.1M524.4,40.8c-1.9,0-3.5,1.5-3.5,3.5s1.5,3.5,3.5,3.5,3.5-1.5,3.5-3.5-1.5-3.5-3.5-3.5h0Z"/>
        </g>
        <path class="cls-1" d="M524.3,44.6h-.5v1.2h-.7v-3.2h1.2c.4,0,.7,0,.9.2.2.2.3.4.3.7s0,.4-.1.5c0,.1-.2.3-.4.3l.7,1.3h0s-.7,0-.7,0l-.6-1.2ZM523.8,44.1h.5c.2,0,.3,0,.4-.1,0,0,.1-.2.1-.3s0-.3-.1-.4-.2-.1-.4-.1h-.5v.9Z"/>
      </g>
    </g>
  </g>
</svg>