<?xml version="1.0" encoding="UTF-8"?>
<svg id="Capa_2" data-name="Capa 2" xmlns="http://www.w3.org/2000/svg" viewBox="0 0 684.1 136.6">
  <defs>
    <style>
      .cls-1 {
        fill: #fff;
      }
    </style>
  </defs>
  <g id="Capa_1-2" data-name="Capa 1">
    <g>
      <polygon class="cls-1" points="177.1 136.2 172.6 136.2 172.6 114.3 177.1 114.3 183.4 123.4 189.7 114.3 194.2 114.3 194.2 136.2 189.7 136.2 189.7 121.2 184.7 128.2 182.2 128.2 177.1 121.2 177.1 136.2"/>
      <rect class="cls-1" x="201.6" y="114.3" width="4.5" height="21.8"/>
      <path class="cls-1" d="M224.6,136.6c-3.4,0-6.2-1.1-8.5-3.2-2.2-2.2-3.4-4.9-3.4-8.2s1.1-6.1,3.3-8.2c2.2-2.1,5.1-3.2,8.5-3.2s4,.5,5.8,1.4v4.5c-1.7-1.1-3.6-1.7-5.7-1.7s-3.8.7-5.2,2c-1.4,1.3-2.1,3-2.1,5.1s.7,3.8,2.1,5.1c1.4,1.3,3.2,2,5.3,2s4.4-.6,6-1.9v4.5c-1.8,1.1-3.8,1.6-6.2,1.6"/>
      <path class="cls-1" d="M241.6,136.2h-4.5v-21.8h10.1c2.3,0,4.2.6,5.5,1.8,1.4,1.2,2,2.7,2,4.6s-.4,2.7-1.2,3.8c-.8,1.1-1.9,1.8-3.3,2.3l6.7,9.3h-5.2l-6.4-8.8h-3.8v8.8ZM241.6,118.2v5.3h5.4c1,0,1.8-.2,2.4-.7.6-.5.9-1.1.9-2s-.3-1.5-.9-2c-.6-.5-1.4-.7-2.4-.7h-5.4Z"/>
      <path class="cls-1" d="M261.1,125.2c0-3.2,1.1-5.9,3.2-8.1,2.1-2.2,4.8-3.3,8.1-3.3s5.9,1.1,8.1,3.3c2.2,2.2,3.2,4.9,3.2,8.1s-1.1,5.8-3.2,8c-2.1,2.2-4.8,3.3-8.1,3.3s-6-1.1-8.1-3.3c-2.1-2.2-3.2-4.9-3.2-8M267.5,130.4c1.3,1.4,2.9,2,4.8,2s3.5-.7,4.8-2c1.3-1.4,1.9-3.1,1.9-5.1s-.6-3.8-1.9-5.1c-1.3-1.4-2.9-2-4.8-2s-3.5.7-4.8,2c-1.3,1.3-1.9,3-1.9,5.1s.6,3.8,1.9,5.1"/>
      <path class="cls-1" d="M301.3,136.6c-3.4,0-6.2-1.1-8.5-3.2-2.2-2.2-3.4-4.9-3.4-8.2s1.1-6.1,3.3-8.2c2.2-2.1,5.1-3.2,8.5-3.2s4,.5,5.8,1.4v4.5c-1.7-1.1-3.6-1.7-5.7-1.7s-3.8.7-5.2,2c-1.4,1.3-2.1,3-2.1,5.1s.7,3.8,2.1,5.1c1.4,1.3,3.2,2,5.3,2s4.4-.6,6-1.9v4.5c-1.8,1.1-3.8,1.6-6.2,1.6"/>
      <polygon class="cls-1" points="330.3 136.2 313.9 136.2 313.9 114.3 329.9 114.3 329.9 118.3 318.4 118.3 318.4 122.6 327.7 122.6 327.7 126.5 318.4 126.5 318.4 132.1 330.3 132.1 330.3 136.2"/>
      <path class="cls-1" d="M340.8,136.2h-4.5v-21.8h10.1c2.3,0,4.2.6,5.5,1.8,1.4,1.2,2,2.7,2,4.6s-.4,2.7-1.2,3.8c-.8,1.1-1.9,1.8-3.3,2.3l6.7,9.3h-5.2l-6.4-8.8h-3.8v8.8ZM340.8,118.2v5.3h5.4c1,0,1.8-.2,2.4-.7.6-.5.9-1.1.9-2s-.3-1.5-.9-2c-.6-.5-1.4-.7-2.4-.7h-5.4Z"/>
      <polygon class="cls-1" points="372.3 136.3 368 136.3 358.8 114.3 363.8 114.3 370.2 130 376.6 114.3 381.4 114.3 372.3 136.3"/>
      <polygon class="cls-1" points="403.3 136.2 386.9 136.2 386.9 114.3 402.9 114.3 402.9 118.3 391.4 118.3 391.4 122.6 400.7 122.6 400.7 126.5 391.4 126.5 391.4 132.1 403.3 132.1 403.3 136.2"/>
      <path class="cls-1" d="M419.9,136.6c-3.4,0-6.2-1.1-8.5-3.2-2.2-2.2-3.4-4.9-3.4-8.2s1.1-6.1,3.3-8.2c2.2-2.1,5.1-3.2,8.5-3.2s4,.5,5.8,1.4v4.5c-1.7-1.1-3.6-1.7-5.7-1.7s-3.8.7-5.2,2c-1.4,1.3-2.1,3-2.1,5.1s.7,3.8,2.1,5.1c1.4,1.3,3.2,2,5.3,2s4.4-.6,6-1.9v4.5c-1.8,1.1-3.8,1.6-6.2,1.6"/>
      <polygon class="cls-1" points="448.9 136.2 432.5 136.2 432.5 114.3 448.5 114.3 448.5 118.3 437 118.3 437 122.6 446.3 122.6 446.3 126.5 437 126.5 437 132.1 448.9 132.1 448.9 136.2"/>
      <path class="cls-1" d="M459.4,136.2h-4.5v-21.8h10.1c2.3,0,4.2.6,5.5,1.8,1.4,1.2,2,2.7,2,4.6s-.4,2.7-1.2,3.8c-.8,1.1-1.9,1.8-3.3,2.3l6.7,9.3h-5.2l-6.4-8.8h-3.8v8.8ZM459.4,118.2v5.3h5.4c1,0,1.8-.2,2.4-.7.6-.5.9-1.1.9-2s-.3-1.5-.9-2c-.6-.5-1.4-.7-2.4-.7h-5.4Z"/>
      <path class="cls-1" d="M484.8,136.2h-4.5v-21.8h4.5v21.8ZM484.5,112.4h-3.8l3-4.6h5.3l-4.5,4.6Z"/>
      <path class="cls-1" d="M495,136.2h-4.7l9.4-22h4.3l9.4,22h-4.8l-2.2-5.1h-9.2l-2.2,5.1ZM501.8,119.8l-3.2,7.6h6.4l-3.2-7.6Z"/>
      <path class="cls-1" d="M45,36.1c0-6.9-1.7-11-7.1-11s-1.8.4-6.9,2.9v19.7c2.3-.2,4.8-.2,8-.2s5.5-4.2,5.7-6.3c.2-1.8.4-3.4.4-5.1M71.1,34.7c0,1.6-.2,3.8-.5,4.7-2.7,10.8-19.9,28.5-29.2,28.5s-7.3-.1-10.5.1v18.7H5.8V26.4c0-5.8-1.9-7.1-5.8-12.1L19.9,0c4.2,5,7.5,8.4,9.3,11.6C39.1,3.3,42.2,1.2,44.5,1.2c16,0,26.7,13.1,26.7,33.4"/>
      <path class="cls-1" d="M102.3,68.1c1.9,0,5.5-4.2,5.7-6.3.2-1.8.4-3.4.4-5.1,0-6.9-.2-14.5-5.8-14.5s-5.5,4.2-5.7,6.3c-.2,1.8-.4,3.4-.4,5.1,0,6.9.2,14.5,5.8,14.5M102.5,21.8c19.6,0,31.4,12.5,31.4,32.8s-.1,2.8-.2,3.5c-2.1,10.5-20.5,30.3-31.4,30.3-19.6,0-31.4-12.5-31.4-32.8s.1-2.8.2-3.5c2.1-10.5,20.5-30.3,31.4-30.3"/>
      <path class="cls-1" d="M155.9,0c6.9,8,11,12,11,17.9v44.1c0,5.8,1.9,7.2,5.8,12.1l-19.3,14.3c-6.9-8-11-12-11-17.9V26.4c0-5.8-1.9-7.1-5.8-12.1L155.9,0Z"/>
      <path class="cls-1" d="M202.5,71.2c.5,0,1.2-.2,5.9-2.7v-6.2l-8.6,1.7c-.2,1.2-.4,2.7-.4,3.5,0,1.6,1.8,3.6,3,3.6M219.4,88.5c-2.9-3.4-5.5-6.1-7.3-8.5-11.3,7.5-12.7,8.5-15.6,8.5-6.5,0-21-15.1-21-20.1s1.7-11.9,5-16.7h27.9c0,.1,0-4.7,0-4.7,0-1.7-3-3.9-4.1-3.9s-4,.6-14.5,2.5l-2.4-21c9.2-1.3,21.2-2.8,25.1-2.8s20.5,12.1,20.5,17.6v22.7c0,5.8,1.9,7.1,5.8,12.1l-19.3,14.3Z"/>
      <path class="cls-1" d="M294.5,68.1c.6,0,1.7-.6,6.5-3.9v-21.7c-3.3-.2-5.3-.4-6.8-.4s-5.5,4.2-5.7,6.3c-.2,1.8-.4,3.4-.4,5.1,0,6.9.1,14.5,6.3,14.5M312.1,88.5c-3.8-4.4-6.8-7.5-8.6-10.5-9.3,7.9-12.6,10.5-14.4,10.5-15,0-26.4-16.1-26.4-32.8s.1-2.8.2-3.5c2.2-11.4,21.4-30.3,30-30.3s3.3.2,8.1,1.5c-.1-5.5-2.1-6.8-5.8-11.6l19.3-11.6c6.9,8,11,12,11,17.9v44.1c0,5.8,1.9,7.1,5.8,12.1l-19.3,14.3Z"/>
      <path class="cls-1" d="M359.4,45c-.2,1.3-.4,2.5-.5,3.9l12-1.8c-.5-5.7-3-6.9-5.7-6.9s-5.6,3.4-5.8,4.8M392.3,59.3l-33.1.4c.8,6.5,3,9,8.2,9s5.2-.6,21.2-3.5l2.8,19.3c-11.1,2.7-20,4.1-25.2,4.1-20.2,0-32.7-11.3-32.7-32.8s.1-2.8.2-3.5c2.1-10.5,20.5-30.3,31.4-30.3,18.2,0,28.7,10.1,28.7,25.9s-.5,7.4-1.6,11.5"/>
      <path class="cls-1" d="M413.7,0c6.9,8,11,12,11,17.9v44.1c0,5.8,1.9,7.2,5.8,12.1l-19.3,14.3c-6.9-8-11-12-11-17.9V26.4c0-5.8-1.9-7.1-5.8-12.1L413.7,0Z"/>
      <path class="cls-1" d="M497.4,36.1c0-6.9-1.7-11-7.1-11s-1.8.4-6.9,2.9v19.7c2.3-.2,4.8-.2,8-.2s5.5-4.2,5.7-6.3c.2-1.8.4-3.4.4-5.1M523.6,34.7c0,1.6-.2,3.8-.5,4.7-2.7,10.8-19.9,28.5-29.2,28.5s-7.3-.1-10.5.1v18.7h-25.1V26.4c0-5.8-1.9-7.1-5.8-12.1l19.9-14.3c4.2,5,7.5,8.4,9.3,11.6,9.9-8.4,13-10.4,15.3-10.4,16,0,26.7,13.1,26.7,33.4"/>
      <path class="cls-1" d="M574.9,88.5c-3.8-4.4-6.7-7.5-8.6-10.5-9.5,8.1-12.6,10.5-14.5,10.5-8.4,0-26.7-15.4-26.7-24.7s3-25.7,7.8-46.9l25,5.5c-7.1,30.2-8.2,34.2-8.2,36.6s5.8,8.1,8.4,8.1,1.6-.2,5.9-2.8V23.6h24.5v38.4c0,5.8,1.9,7.1,5.8,12.1l-19.3,14.3Z"/>
      <path class="cls-1" d="M636.8,56.7c0-6.9-1.7-11-7.2-11s-1.8.4-6.9,2.9v8.6c0,2.8.5,10.9,8,10.9s5.5-4.2,5.7-6.3c.2-1.8.4-3.4.4-5.1M662.4,54c0,1.6-.1,2.8-.2,3.5-2.1,11.5-20.5,30.9-31.4,30.9-19.6,0-32.5-12.5-32.5-32.8v-29.2c0-5.8-1.9-7.2-5.8-12.1L611.8,0c6.9,8,11,12,11,17.9v12.8c8.2-7.1,10.8-9,13-9,16,0,26.7,13.1,26.7,32.2"/>
      <path class="cls-1" d="M674.6,8.3c0,.6,0,.7-.3,1.2-.3.5-.4.5-.8.5s-.7,0-1,0v-2.2c.9-.4,1.1-.4,1.1-.4,1.1,0,1.1.1,1.1.9M673.5,0c-5.5,0-11.1,3.8-11.1,10.9s2.5,9.9,9.4,10.3h.6s0-3.1,0-3.1h-.5c-4.3-.4-6.2-4-6.2-7.4,0-5.2,3.9-7.5,7.6-7.5s7.5,2.2,7.5,7.2-1,4.8-2.7,6.4l-1.7-5.2c.8-.9,1.5-2,1.5-3.6,0-2.3-1.6-3.7-4-3.7s-.5.1-1.2.4c-.3.1-.6.3-1.1.5-.3-.3-.5-.6-.8-.9l-.3-.3-2.5,1.8.6.7c.4.5.6.6.6,1.2v8.9h3.3v-3.7c.2,0,.4,0,.6,0h.3s2,6,2,6l3.1,1.4.3-.2c3.3-1.9,5.4-5.8,5.4-9.8C684.1,3.3,678.6,0,673.5,0"/>
    </g>
  </g>
</svg>