<?xml version="1.0" encoding="UTF-8"?>
<svg id="Capa_2" data-name="Capa 2" xmlns="http://www.w3.org/2000/svg" viewBox="0 0 557.9 90.2">
  <defs>
    <style>
      .cls-1 {
        fill: #fff;
      }
    </style>
  </defs>
  <g id="Capa_1-2" data-name="Capa 1">
    <g>
      <path class="cls-1" d="M547.8,19.3c0-14.7-24.9-19.8-41.2-15.6-.4.1-.3.4,0,.4,11.1-1.2,24.7,5.8,24.7,14.4s-7.2,9.3-11.4,10.9c-.3.1-.1.4.1.4,7.9-1.3,15-.7,20.7-.1.6,0,.9-.3,1.3-.6,3-2.1,5.7-5.1,5.7-9.9Z"/>
      <path class="cls-1" d="M518.5,1c.3,0,.3-.4,0-.4-30.1-4.5-52,16.9-52,42.2s16.9,42.4,41.5,42.4,15.3-1.8,21.3-6.4c1.6-1.3,2.4-2.1,3-4.3,0,0,1.2-4.6.1-9-.1-.6-.3-.6-.9-.3-5.1,1.9-13.9,4-21.1,4-19.6,0-32.1-16-32.1-33S494.4,0,518.5,1Z"/>
      <path class="cls-1" d="M494.7,39.7c27.1,0,40.5,14.8,40.5,30.1s-11.5,18.6-21.4,19.9c-.3,0-.3.4,0,.4,22.8,0,42.1-11.7,42.1-28.2s-4.8-13.6-9.7-18.6c-.6-.6-.7-.6-1.2-.3-2.7,1.8-5.7,5.4-7.2,12.3,0,.1-.3.1-.3,0,.3-10.9,7.2-18,20.2-18s.3-.3,0-.4c-18.9-8.8-43.3-7.8-62.9,2.4-.3.1-.1.3,0,.3Z"/>
      <g>
        <path class="cls-1" d="M130.8,57.7c-3.1.9-5.7,1.3-7.9,1.3-6,0-7.3-5.3-7.3-9.7,0-6.9,2.5-10.4,7.4-10.4s4.1.6,4.1.6l4.3,1.7v-5.7c0,0-.5-.2-.5-.2-1.5-.6-5.5-2.1-9.6-2.1-8.8,0-14.5,6.3-14.5,16.1s5.5,15.6,13.7,15.6,6.9-.8,11.7-2.9l.8-.3-1.3-4.3-.9.3Z"/>
        <path class="cls-1" d="M28.4,41.8c3.9-1.6,5.7-4.5,5.7-9.1s-2.1-8-5.9-9.5c-2.6-1.1-5.1-1.3-12.5-1.3H0v4.5s3.8.6,4.9.7v37.2h12.5c6.1,0,8.7-.4,11.5-1.7,4.2-2,6.7-5.8,6.7-10.5s-2.5-8.8-7.2-10.3M13.8,27.4h2.4c3.3,0,5.8,0,7.4,1.3,1.1.9,1.6,2.4,1.6,4.2,0,4.2-1.3,5.9-6.3,6.4l-3.6.4-1.6,2.7v-15.1ZM23.9,57.2c-2,1.5-4.9,1.6-8.6,1.6h-1.6v-13.9h.2s2.9,0,2.9,0c3.2,0,5.8,0,7.4,1.4,1.4,1.1,2.1,3,2.1,5.2s-.9,4.5-2.5,5.6"/>
        <path class="cls-1" d="M276.9,41.8c3.9-1.6,5.7-4.5,5.7-9.1s-2.1-8-5.9-9.5c-2.6-1.1-5.1-1.3-12.5-1.3h-15.7v4.5s3.8.6,5,.7v37.2h12.5c6.1,0,8.7-.4,11.5-1.7,4.2-2,6.6-5.8,6.6-10.5s-2.5-8.8-7.2-10.3M262.3,27.4h2.4c3.2,0,5.8,0,7.4,1.3,1.1.9,1.6,2.4,1.6,4.2,0,4.2-1.3,5.9-6.3,6.4l-3.6.4-1.6,2.7v-15.1ZM272.5,57.2c-2,1.5-4.9,1.6-8.6,1.6h-1.6v-13.9h.2s2.9,0,2.9,0c3.2,0,5.8,0,7.4,1.4,1.4,1.1,2.1,3,2.1,5.2s-.9,4.5-2.5,5.6"/>
        <path class="cls-1" d="M94.2,33.2c-2.6,0-5.9.9-9.6,2.5,0-.7-.2-2.4-.2-2.4l-12.8,1.6v4.5h4.7v25h8.4s0-22.1,0-23.3c1.1-.4,3.8-1.2,6.5-1.2s2.3.3,2.8.8c.8.8.8,2.4.8,4.3v19.5s8.4,0,8.4,0v-20c0-4.6-.2-6.1-1.7-8-1.6-2.1-4.1-3.2-7.4-3.2"/>
        <path class="cls-1" d="M149.4,33.2c-9.4,0-15.2,6.1-15.2,15.9s5.7,15.8,15.2,15.8,15.2-6.1,15.2-15.9-5.7-15.8-15.2-15.8M149.4,59.4c-2.7,0-6.3-1.1-6.3-10.3s3.2-10.3,6.4-10.3,6.3,1.1,6.3,10.3-3.2,10.4-6.4,10.4"/>
        <path class="cls-1" d="M369.6,33.2c-9.4,0-15.2,6.1-15.2,15.9s5.7,15.8,15.2,15.8,15.2-6.1,15.2-15.9-5.7-15.8-15.2-15.8M369.6,59.4c-2.7,0-6.3-1.1-6.3-10.3s3.2-10.3,6.4-10.3,6.3,1.1,6.3,10.3-3.2,10.4-6.4,10.4"/>
        <path class="cls-1" d="M405,58.5l-5.9.9c-1.3,0-1.7-.3-1.9-.7-.2-.3-.2-.5-.2-2.9s0-14.8,0-16.5h8.4v-5.2h-8.4v-8.1h-1c0,0-7.4.7-7.4.7v28.9c0,3.2.3,5.3,1.6,6.9,1.3,1.6,3.3,2.3,6.2,2.3s5.8-.7,9.1-2l.8-.3-1.3-4Z"/>
        <path class="cls-1" d="M303.5,33.2c-9.4,0-15.2,6.1-15.2,15.9s5.7,15.8,15.2,15.8,15.2-6.1,15.2-15.9-5.7-15.8-15.2-15.8M303.5,59.4c-2.7,0-6.3-1.1-6.3-10.3s3.2-10.3,6.4-10.3,6.4,1.1,6.4,10.3-3.2,10.4-6.4,10.4"/>
        <path class="cls-1" d="M342.5,35.6c-2-1.1-4.3-1.7-6.6-1.7-8.4,0-14.4,6.7-14.4,16.1s4.7,14.7,12.3,14.7,3.9-.5,8.4-2.4v2.4c0,5.3-1.9,6.8-8.5,6.8s-7-.5-10.1-1.2v5.1c6.3,1.4,8.9,1.8,12.1,1.8s7.6-.7,10.1-2c3.7-2,5-4.7,5-10v-30.8h-8.4v1.3ZM342.3,58.2c-1.5.2-2.5.4-3.9.4-5.1,0-7.9-3.3-7.9-9.4s3.1-9.9,8.7-9.9,1.8,0,3.1.3v18.6Z"/>
        <path class="cls-1" d="M67.4,34.6h-8.2v1.3c-1.9-1.1-4.2-1.7-6.4-1.7-8.2,0-14.1,6.7-14.1,16s4.6,14.6,12.1,14.6,4.4-.9,8.2-3.1v2.8h.2s11.7-1.2,11.7-1.2v-5h-3.4v-23.8ZM59.2,58.4c-1.6.2-2.6.4-4,.4-5.2,0-8.1-3.3-8.1-9.5s3.2-10,8.9-10,1.8,0,3.2.3v18.8Z"/>
        <path class="cls-1" d="M436.2,34.6h-8.2v1.3c-1.9-1.1-4.2-1.7-6.4-1.7-8.3,0-14.1,6.7-14.1,16s4.6,14.6,12.1,14.6,4.4-.9,8.2-3.1v2.8l11.9-1.2v-5h-3.4v-23.8ZM428,58.4c-1.6.2-2.6.4-4,.4-5.2,0-8.1-3.3-8.1-9.5s3.2-10,8.9-10,1.8,0,3.2.3v18.8Z"/>
        <polygon class="cls-1" points="432.4 26.9 430.4 20.5 429.5 20.9 416.3 26.2 417.5 30 432.4 26.9"/>
        <path class="cls-1" d="M205,19.9h-.4s-1,.2-1,.2l-11.1,1.4v3.8h4.1c0,.7,0,8.9,0,9.8-3.3-1.1-7.9-2.1-12.2-.6-5.8,2-9.1,7.2-9.3,14.8-.2,6.9,3.4,12.6,9.1,14.4,4.2,1.4,9.7-.2,12.8-1.6,0,.6.1,2.5.1,2.5l11.2-1.5v-3.8h-3.6c0-.8.3-39.3.3-39.3M196.6,58.2c-3.8,1-8,1.8-10.7-1.5-1.6-1.9-1.9-4.8-1.9-7.7s0-.7,0-1c0-3.2.9-5.2,2.6-7.1,2.6-2.9,7-2.3,10.3-.8,0,0-.2,17.5-.2,18.1"/>
        <path class="cls-1" d="M225.1,33.2c-1.9,0-3.7.2-5.4.7-6.2,2-9.7,7.5-9.9,15.3-.2,7.1,3.6,12.9,9.6,14.9,5.3,1.7,13.1-.1,18.1-2.8h.3c0-.1-1.4-4.4-1.4-4.4l-2.8.9c-4,1.1-9.2,3.2-12.5-.7-1.8-2.1-2-5.2-2-7.7l16.4.3h2.5v-.4c0-.7.1-1.4.1-2.1,0-14.2-12.4-13.9-13-13.9M219.4,45.1c0-.5.3-6.7,5.8-6.7s5.6,6,5.7,6.7h-11.5Z"/>
      </g>
    </g>
  </g>
</svg>