<?xml version="1.0" encoding="UTF-8"?>
<svg id="Capa_2" data-name="Capa 2" xmlns="http://www.w3.org/2000/svg" viewBox="0 0 328.4 107.8">
  <defs>
    <style>
      .cls-1 {
        fill: #fff;
      }
    </style>
  </defs>
  <g id="Capa_1-2" data-name="Capa 1">
    <g>
      <path class="cls-1" d="M146.4,67.8c0-11.4-7.5-18.5-17.9-18.5s-17.9,7.1-17.9,18.5,7.5,18.5,17.9,18.5,17.9-7.1,17.9-18.5M169,30v75.8h-22.5v-7.1c-5,5.8-12.3,9.2-22.4,9.2-19.7,0-35.9-17.4-35.9-40s16.2-40,35.9-40,17.4,3.5,22.4,9.2v-7.1h22.5Z"/>
      <path class="cls-1" d="M53.9,92.6c0-8.4,6.7-15.2,15.1-15.2s15.1,6.8,15.1,15.2-6.7,15.2-15.1,15.2-15.1-6.8-15.1-15.2"/>
      <path class="cls-1" d="M298.2,92.6c0-8.4,6.7-15.2,15.1-15.2s15.1,6.8,15.1,15.2-6.7,15.2-15.1,15.2-15.1-6.8-15.1-15.2"/>
      <rect class="cls-1" x="181.8" width="22.5" height="105.7"/>
      <rect class="cls-1" x="301.7" width="22.5" height="69.3"/>
      <path class="cls-1" d="M268.2,60c-2.4-8.8-9.2-12-15.9-12s-14.3,4.2-16.4,12h32.3ZM254.4,87.5c6.2,0,11.4-2.4,14.4-5.8l18,10.5c-7.4,10.3-18.5,15.6-32.8,15.6-25.7,0-41.6-17.4-41.6-40s16.2-40,40-40,38.2,17.1,38.2,40-.3,6.2-.9,9.1h-53.3c2.9,7.9,9.8,10.6,18,10.6"/>
      <path class="cls-1" d="M46.6,92.6c0-2.7.5-5.3,1.4-7.8-2.3.9-4.8,1.5-7.5,1.5-10.4,0-17.9-7.1-17.9-18.5s7.5-18.5,17.9-18.5,17.9,7.1,17.9,18.5-.2,3.6-.6,5.3c3.3-2,7.2-3.1,11.3-3.1s8.4,1.2,11.8,3.4V0h-22.5v37.1c-5-5.8-12.3-9.2-22.4-9.2C16.2,27.8,0,45.3,0,67.8s16.2,40,35.9,40,10.3-1.1,14.2-3c-2.2-3.5-3.6-7.7-3.6-12.2"/>
    </g>
  </g>
</svg>