<?xml version="1.0" encoding="UTF-8"?>
<svg id="Capa_2" data-name="Capa 2" xmlns="http://www.w3.org/2000/svg" viewBox="0 0 111.8 112">
  <g id="menu">
    <g id="_1WOus5" data-name="1WOus5">
      <g>
        <path d="M91,68.4c-.7,0-1.2.2-1.7.2-1,0-2.1,0-3.5,0,0,0-.1,0-.1-.1.2-2.2.1-4.3.6-6.3,1.1-4,5.2-6.2,9.5-5.3,5.5,1.1,9.6,6.2,9.2,11.5-.4,5.9-4.9,10.5-10.7,10.7-3.2.1-6.5.2-9.8,0-6.8-.3-11.6-6.5-10.6-13.4.5-3.3,1.6-6.3,3.5-9,4.7-6.6,7.5-13.8,7.5-21.9,0-14.1-9.7-26.7-23.7-29.2-16.4-3-31.3,6.7-34.9,22.7-2.1,9.6.5,18.3,5.9,26.3,2.4,3.4,4.6,6.8,5.2,11.1,1.1,7.4-4,13.4-11.5,13.5-2.9,0-5.7,0-8.6,0-6.2-.2-11.2-5.5-11-11.5.2-6.2,5.4-11.2,11.6-10.9,3.5.1,6.6,2.5,7.3,5.9.4,1.8.3,3.7.5,5.7s0,.1-.1.1h-5c0,0-.1,0-.1-.1,0-1.1,0-2.2,0-3.3,0-2.6-1.6-3.8-4.2-3.2-3.2.7-5,3.3-4.8,6.6.2,3,2.7,5.4,5.8,5.5,2.9,0,5.9,0,8.8,0,3.5,0,6.4-3.1,6.2-6.6-.1-3-1.2-5.6-3-8-4.8-6.5-8-13.6-8.8-21.7C19.3,21.1,30.6,5.1,47.1,1c22.8-5.6,44.4,12.2,43.1,35.6-.4,8.2-3.3,15.7-8,22.4-1.7,2.4-2.9,4.9-3.2,7.9-.3,3.8,2.7,7.1,6.5,7.2,2.8,0,5.6,0,8.5,0,3.3,0,5.8-2.6,5.9-5.8.1-3.4-2.3-6.1-5.5-6.4-2-.2-3.3.9-3.4,3,0,1.2,0,2.4,0,3.7Z"/>
        <path d="M63.9,102.7h4.9c0,.2,0,.3,0,.4,0,.4,0,.9.2,1.3,1.3,3,4,2.5,6.4,2.5,2.7,0,4-.7,4.6-2.5.9-2.3-.6-4.2-3.4-5.2-3.1-1-6.2-2-9-3.6-5.2-2.9-8.9-7.3-11.6-12.7,0,0-.1,0-.2,0-1.4,2.1-2.6,4.2-4.1,6.1-4.3,5.3-9.9,8.8-16.6,10.3-.5.1-1,.2-1.5.4-1.6.8-2.5,2-2.3,3.8.1,1.8,1.5,3.2,3.4,3.4.9.1,1.8,0,2.7,0,4.3,0,5.2-.8,5.6-5.2,0,0,0,0,.1,0h4.4s0,0,.1,0c1.1,4.2-1.9,9.2-6.5,10-2.6.4-5.4.4-8,0-3.8-.6-6.7-4.1-6.8-7.9-.2-4.3,2.2-7.8,6.4-9.1,1.9-.6,3.9-1,5.6-1.8,9-4.1,14-11.1,14.9-21,0-.4,0-.7.1-1.4h4.8c0,0,0,0,.1,0,.2,1.5.3,3,.6,4.3,2.3,10.3,8.6,16.8,18.9,19.4,7.2,1.8,9.9,9,5.6,14.6-3.1,4.1-15.1,4.3-17.8-.3-1.1-1.9-1.8-3.6-1.7-5.9Z"/>
        <path d="M43,68.3h4.7c0,0,0,0,.1,0,.4,3,0,5.8-1,8.5-2.7,7.4-9.6,12.4-17.6,12.5-4.1,0-8.3,0-12.4,0-6.1,0-10.6,3.8-11.7,9.8-.7,4,1.4,7.2,5,7.6,3.6.3,6.2-2.3,6.3-6.3,0-.4,0-.9,0-1.5h4.6s0,0,.1,0c1.3,5.6-2.7,11.6-8.4,12.6-6.3,1.1-12.3-3.3-12.8-9.5-.7-9.5,6.8-17.6,16.4-17.8,3.8,0,7.6,0,11.5,0,9,0,14.8-5.7,15-14.7,0-.4,0-.8,0-1.4Z"/>
        <path d="M95.2,99.1c0,0,.1,0,.1.1,0,.8,0,1.4,0,2.1.2,3.4,2.7,5.8,6,5.7,3.1-.1,5.5-2.7,5.5-5.9,0-6-5-11.2-11-11.4-4.3-.1-8.5,0-12.8,0-10.7-.1-18.9-8.2-19.2-18.8,0-.7,0-1.4,0-2.3,0,0,0-.1.1-.1h4.7c0,0,0,0,.1,0,.2,1.5.2,3.2.5,4.7,1.3,6.6,6.8,11.1,13.6,11.2,4.9,0,9.8-.2,14.7.3,8.2.8,14.4,8.1,14.4,16.4,0,6.5-5.4,11.3-12,10.7-6.1-.6-10.4-6.3-9.4-12.7,0,0,0,0,.1,0h4.6Z"/>
        <path d="M79.6,34.5h-4.6c0,0,0,0-.1,0-1.4-11.5-7.8-17.8-19.2-19.1,0,0,0,0,0-.1v-4.4c0,0,0,0,0-.1,11-2.1,24.5,11.2,24,23.7,0,0,0,.1-.1.1Z"/>
      </g>
    </g>
  </g>
</svg>