<?xml version="1.0" encoding="UTF-8"?>
<svg id="Capa_2" data-name="Capa 2" xmlns="http://www.w3.org/2000/svg" viewBox="0 0 112.4 112.4">
  <defs>
    <style>
      .cls-1 {
        stroke: #000;
        stroke-miterlimit: 10;
        stroke-width: .5px;
      }
    </style>
  </defs>
  <g id="menu">
    <g id="MTSjGe">
      <g>
        <path class="cls-1" d="M112.2,56c-.3,15-5.3,27.9-15.5,38.7-8.7,9.2-19.4,14.8-31.9,16.7-11.8,1.9-23.1,0-33.8-5.5-.7-.4-1.4-.5-2.1-.3-8.3,2.1-16.6,4.1-25,6.2-2.7.7-4.1-.8-3.4-3.4,2.2-8,4.4-15.9,6.7-23.9.2-.8.2-1.5-.2-2.2C2.6,74.5.3,66,.2,57c0-15,4.9-28.1,15.2-39C23.4,9.4,33.2,3.9,44.7,1.5c11.8-2.5,23.2-1.3,34.2,3.7,12.3,5.5,21.4,14.3,27.4,26.4,3.5,6.9,5.4,14.3,5.7,22.1,0,.9.1,1.7.1,2.4ZM6.2,106.3c.6-.1.9-.2,1.3-.3,7.1-1.8,14.2-3.5,21.3-5.3,1-.3,2-.3,3,.3,9.7,5.3,20.1,7.2,31,5.8,11.6-1.5,21.6-6.3,29.6-14.6,12-12.3,16.8-27.2,14.2-44.2-2-13.1-8.4-23.8-18.8-31.9-10.4-8.2-22.3-11.7-35.5-10.7-5.6.4-11,1.7-16.2,3.9-12.4,5.4-21.4,14.4-26.8,26.7-3.6,8.2-4.8,16.9-3.9,25.9.8,7,2.9,13.7,6.5,19.8.6,1,.7,1.9.3,2.9-1.4,4.9-2.8,9.9-4.2,14.8-.6,2.2-1.2,4.5-1.9,6.9Z"/>
        <path class="cls-1" d="M37.4,27.1c.7,0,1.4,0,2.1,0,2.2.2,3.6,1.5,4.4,3.4,1.7,3.8,3.3,7.7,4.9,11.6.6,1.4.5,2.8-.2,4.2-.9,1.8-2.2,3.3-3.5,4.8-.5.5-.5.9-.1,1.4,4.3,6.8,10,11.7,17.5,14.8.6.2.9.1,1.3-.4,1.3-1.6,2.6-3.2,3.9-4.8,1.5-1.8,3.2-2.3,5.4-1.6,2.8,1,5.5,2.5,8.2,3.7,1.3.6,2.5,1.2,3.8,1.7,1.9.9,2.9,2.3,2.9,4.4.2,8.9-6.1,13.5-13.6,14.8-5.8,1-11.1-1.1-16.3-3.2-10.8-4.3-18.8-11.9-25.7-21-2.7-3.6-5.3-7.3-6.6-11.7-2.2-7.4-.8-14,4.5-19.6,2-2.1,4.4-2.9,7.2-2.6ZM71.2,80.4c.7,0,1.3,0,2,0,5.1-.4,9.1-4.1,9.7-8.9,0-.7-.1-1.1-.8-1.4-3.3-1.5-6.6-3.1-9.8-4.7-.7-.4-1.1-.2-1.6.4-1.3,1.8-2.7,3.4-4.2,5-1.4,1.6-3.2,1.9-5.1,1.2-9.2-3.5-16.3-9.6-21.3-18.1-1.3-2.1-1-3.9.7-5.7,1.1-1.2,2.2-2.3,3-3.7.3-.5.3-.9,0-1.4-1.5-3.4-2.9-6.8-4.3-10.3-.1-.3-.2-.7-.6-.9-1-.5-4.4,0-5.3.9-4.3,4.1-5.2,9-3.6,14.5,1.3,4.3,3.8,7.9,6.5,11.4,6.2,8.1,13.5,14.9,23.2,18.7,3.7,1.4,7.3,3.1,11.4,2.9Z"/>
      </g>
    </g>
  </g>
</svg>