<?xml version="1.0" encoding="UTF-8"?>
<svg id="Capa_2" data-name="Capa 2" xmlns="http://www.w3.org/2000/svg" viewBox="0 0 103.6 112">
  <g id="menu">
    <g>
      <path d="M5.7,104.7c0-32.4,0-64.9,0-97.3,0-1.6,0-1.7,1.6-1.7,6.8,0,13.6,0,20.4,0,.3,0,.5,0,.8,0,.1,0,.3,0,.4,0h.2v1.6c0,2.9,0,5.9,0,8.8,0,7.1,0,14.5,0,21.8,0,2.1.7,3.9,2,5.2,1.3,1.3,3,1.9,5,1.9h.1c7.2,0,14.6,0,21.7,0,2.9,0,5.9,0,8.8,0h1.6v18.4h5.7s0,0,0,0c0-.1,0-.2,0-.3v-1.1c0-7.3,0-14.8,0-22.2,0-.3-.2-.7-.4-.9C60.2,25.3,47.6,12.7,35.3.5c-.3-.3-.7-.5-1.1-.5C25.5,0,16.4,0,6.4,0,4.1,0,2.3,1,1,2.9.3,4,0,5.2,0,7c0,28,0,56,0,84v14.1c0,.2,0,.4,0,.7.1,2.9,1.9,5.2,4.7,6,.1,0,.3.1.4.2,0,0,0,0,.1,0h36.8v-5.6H7.4c-1.6,0-1.7,0-1.7-1.7ZM34.9,8.4l.4.4,30.6,30.6h-.5c-.1,0-.2,0-.3,0-.2,0-.5,0-.8,0-5.4,0-10.8,0-16.2,0s-7.6,0-11.5,0c-1.6,0-1.7,0-1.7-1.7V8.4Z"/>
      <path d="M102.2,66.2c-3.1-3.2-5.9-6-8.7-8.7-2.1-2-4.8-2-6.9,0-9.2,9.1-21.2,21.1-33.3,33.2-.5.5-1,1.3-1.2,2.1-1.1,3.9-2.3,7.9-3.3,11.7l-.9,3c-.7,2.3-.3,3.1,1.8,4.2h1.4c0,0,.1,0,.2,0,.2,0,.3-.1.5-.2,1.4-.4,2.8-.8,4.1-1.2,3.4-1,7-2,10.5-3.1,1-.3,2-.9,2.7-1.6,6-5.9,12.1-12,18-17.9l6.8-6.8c2.7-2.7,5.4-5.4,8.1-8.2,2.1-2.1,2.2-4.8.2-6.8ZM89,77.9c-.1.1-.3.3-.5.5l-2.6,2.6c-6.7,6.7-13.6,13.6-20.4,20.4-.5.4-1.1.8-1.6,1-2.2.7-4.4,1.3-6.7,1.9l-2.8.8v-.4c.2-.4.4-.9.5-1.3.3-.9.5-1.7.7-2.5.7-4,2.7-7.4,6.4-11,4.6-4.4,9.2-8.9,13.5-13.4,1.8-1.8,3.5-3.6,5.3-5.3.2-.2.3-.4.5-.6.1-.1.2-.3.4-.5l.2-.2,7.4,7.7-.2.3ZM93.2,73.2l-6.9-7.2,3.8-3.8,7.3,7.3-4.2,3.7Z"/>
      <path d="M20.4,52.9c-2.1,0-4.1,0-6.2,0v5.7c15,0,30.1,0,45.1,0v-5.7c-5.5,0-11.1,0-16.6,0h-22.3Z"/>
      <path d="M55.9,72.3c1.1,0,2.3,0,3.4,0v-5.7c-15,0-30.1,0-45.1,0v5.7c6.1,0,12.2,0,18.3,0h21.9s1.5,0,1.5,0Z"/>
      <path d="M25.2,93.8c-3.7,0-7.3,0-11,0v5.6c2.4,0,4.7,0,7.1,0h3c1,0,1.9,0,2.9,0,2.3,0,4.6,0,6.9,0v-5.6c-.9,0-1.9,0-2.8,0h-6.1Z"/>
      <path d="M24.5,80.1c-1,0-2,0-3.1,0-2.4,0-4.8,0-7.2,0v5.6c4,0,8,0,12,0,2.6,0,5.3,0,7.9,0v-5.6c-2.4,0-4.9,0-7.3,0h-2.4Z"/>
    </g>
  </g>
</svg>