<?xml version="1.0" encoding="UTF-8"?>
<svg id="Capa_1" data-name="Capa 1" xmlns="http://www.w3.org/2000/svg" viewBox="0 0 40 40">
  <path d="M3.5,37.4c0-11.6,0-23.2,0-34.8,0-.6,0-.6.6-.6,2.4,0,4.9,0,7.3,0,0,0,.2,0,.3,0,0,0,.1,0,.2,0h0v.6c0,1.1,0,2.1,0,3.2,0,2.6,0,5.2,0,7.8,0,.7.2,1.4.7,1.9.5.5,1.1.7,1.8.7h0c2.6,0,5.2,0,7.7,0,1.1,0,2.1,0,3.2,0h.6v6.6h2s0,0,0,0c0,0,0,0,0-.1v-.4c0-2.6,0-5.3,0-7.9,0-.1,0-.2-.1-.3C23,9,18.5,4.5,14.1.2c0,0-.3-.2-.4-.2C10.6,0,7.4,0,3.8,0c-.8,0-1.4.4-1.9,1-.3.4-.4.8-.4,1.5,0,10,0,20,0,30v5c0,0,0,.2,0,.2,0,1,.7,1.9,1.7,2.1,0,0,.1,0,.2,0,0,0,0,0,0,0h13.2v-2H4.2c-.6,0-.6,0-.6-.6ZM14,3h.1c0,.1,10.9,11.1,10.9,11.1h-.2s0,0-.1,0c0,0-.2,0-.3,0-1.9,0-3.9,0-5.8,0s-2.7,0-4.1,0c-.6,0-.6,0-.6-.6V3Z"/>
  <path d="M38,23.7c-1.1-1.1-2.1-2.2-3.1-3.1-.8-.7-1.7-.7-2.5,0-3.3,3.3-7.6,7.5-11.9,11.9-.2.2-.4.5-.4.8-.4,1.4-.8,2.8-1.2,4.2l-.3,1.1c-.2.8-.1,1.1.6,1.5h.5s0,0,0,0c0,0,.1,0,.2,0,.5-.1,1-.3,1.5-.4,1.2-.4,2.5-.7,3.7-1.1.4-.1.7-.3,1-.6,2.2-2.1,4.3-4.3,6.4-6.4l2.4-2.4c1-1,1.9-1.9,2.9-2.9.7-.7.8-1.7,0-2.4ZM33.3,27.8c0,0-.1.1-.2.2l-.9.9c-2.4,2.4-4.9,4.9-7.3,7.3-.2.2-.4.3-.6.4-.8.2-1.6.4-2.4.7l-1,.3h0c0-.3,0-.4.1-.6,0-.3.2-.6.2-.9.2-1.4,1-2.6,2.3-3.9,1.6-1.6,3.3-3.2,4.8-4.8.6-.6,1.3-1.3,1.9-1.9,0,0,.1-.1.2-.2,0,0,0-.1.1-.2h0c0,0,2.6,2.7,2.6,2.7h0ZM34.8,26.1l-2.5-2.6,1.3-1.4,2.6,2.6-1.5,1.3Z"/>
  <path d="M8.8,18.9c-.7,0-1.5,0-2.2,0v2c5.4,0,10.7,0,16.1,0v-2c-2,0-3.9,0-5.9,0h-8Z"/>
  <path d="M21.5,25.8c.4,0,.8,0,1.2,0v-2c-5.4,0-10.7,0-16.1,0v2c2.2,0,4.4,0,6.5,0h7.8s.5,0,.5,0Z"/>
  <path d="M10.5,33.5c-1.3,0-2.6,0-3.9,0v2c.8,0,1.7,0,2.5,0h1.1c.3,0,.7,0,1,0,.8,0,1.6,0,2.5,0v-2c-.3,0-.7,0-1,0h-2.2Z"/>
  <path d="M10.2,28.6c-.4,0-.7,0-1.1,0-.8,0-1.7,0-2.6,0v2c1.4,0,2.9,0,4.3,0,.9,0,1.9,0,2.8,0v-2c-.9,0-1.7,0-2.6,0h-.9Z"/>
</svg>