<?xml version="1.0" encoding="UTF-8"?>
<svg id="Capa_1" data-name="Capa 1" xmlns="http://www.w3.org/2000/svg" viewBox="0 0 40 40">
  <path d="M32.5,24.5c-.2,0-.4,0-.6,0-.4,0-.7,0-1.2,0s0,0,0,0c0-.8,0-1.5.2-2.2.4-1.4,1.9-2.2,3.4-1.9,2,.4,3.4,2.2,3.3,4.1-.2,2.1-1.7,3.7-3.8,3.8-1.2,0-2.3,0-3.5,0-2.4-.1-4.1-2.3-3.8-4.8.2-1.2.6-2.2,1.3-3.2,1.7-2.4,2.7-4.9,2.7-7.8,0-5.1-3.5-9.5-8.5-10.4-5.9-1.1-11.2,2.4-12.5,8.1-.8,3.4.2,6.5,2.1,9.4.8,1.2,1.6,2.4,1.9,4,.4,2.6-1.4,4.8-4.1,4.8-1,0-2.1,0-3.1,0-2.2,0-4-2-3.9-4.1,0-2.2,1.9-4,4.1-3.9,1.2,0,2.3.9,2.6,2.1.1.6.1,1.3.2,2s0,0,0,0h-1.8s0,0,0,0c0-.4,0-.8,0-1.2,0-.9-.6-1.4-1.5-1.1-1.1.3-1.8,1.2-1.7,2.4,0,1.1,1,1.9,2.1,2,1.1,0,2.1,0,3.2,0,1.3,0,2.3-1.1,2.2-2.4s-.4-2-1.1-2.8c-1.7-2.3-2.8-4.9-3.1-7.7C6.9,7.5,11,1.8,16.8.4c8.1-2,15.8,4.3,15.4,12.7-.2,2.9-1.2,5.6-2.8,8-.6.9-1,1.8-1.1,2.8s1,2.5,2.3,2.6,2,0,3,0c1.2,0,2.1-.9,2.1-2.1,0-1.2-.8-2.2-2-2.3-.7,0-1.2.3-1.2,1.1,0,.4,0,.9,0,1.3Z"/>
  <path d="M22.9,36.7h1.8c0,0,0,.1,0,.2,0,.2,0,.3,0,.5.5,1.1,1.4.9,2.3.9,1,0,1.4-.3,1.7-.9.3-.8-.2-1.5-1.2-1.8-1.1-.4-2.2-.7-3.2-1.3-1.9-1-3.2-2.6-4.2-4.5,0,0,0,0,0,0-.5.8-.9,1.5-1.5,2.2-1.5,1.9-3.5,3.1-5.9,3.7-.2,0-.4,0-.5.2-.6.3-.9.7-.8,1.4,0,.6.5,1.1,1.2,1.2.3,0,.6,0,1,0,1.5,0,1.9-.3,2-1.9s0,0,0,0h1.6s0,0,0,0c.4,1.5-.7,3.3-2.3,3.6-.9.2-1.9.1-2.9,0-1.4-.2-2.4-1.5-2.4-2.8,0-1.5.8-2.8,2.3-3.3.7-.2,1.4-.3,2-.6,3.2-1.5,5-4,5.3-7.5,0-.1,0-.3,0-.5h1.7s0,0,0,0c0,.5.1,1.1.2,1.6.8,3.7,3.1,6,6.7,6.9,2.6.6,3.5,3.2,2,5.2-1.1,1.5-5.4,1.5-6.4-.1-.4-.7-.7-1.3-.6-2.1Z"/>
  <path d="M15.4,24.4h1.7s0,0,0,0c.1,1.1,0,2.1-.4,3.1-1,2.6-3.4,4.4-6.3,4.5-1.5,0-3,0-4.4,0-2.2,0-3.8,1.4-4.2,3.5-.3,1.4.5,2.6,1.8,2.7,1.3.1,2.2-.8,2.2-2.2,0-.2,0-.3,0-.5h1.6s0,0,0,0c.5,2-1,4.1-3,4.5-2.3.4-4.4-1.2-4.6-3.4-.3-3.4,2.4-6.3,5.9-6.4,1.4,0,2.7,0,4.1,0,3.2,0,5.3-2,5.4-5.3,0-.1,0-.3,0-.5Z"/>
  <path d="M34,35.4s0,0,0,0c0,.3,0,.5,0,.7,0,1.2,1,2.1,2.1,2,1.1,0,2-1,2-2.1,0-2.1-1.8-4-3.9-4.1-1.5,0-3.1,0-4.6,0-3.8,0-6.7-2.9-6.9-6.7,0-.3,0-.5,0-.8s0,0,0,0h1.7s0,0,0,0c0,.6,0,1.1.2,1.7.5,2.4,2.4,4,4.8,4,1.8,0,3.5,0,5.3.1,2.9.3,5.2,2.9,5.1,5.9,0,2.3-1.9,4-4.3,3.8-2.2-.2-3.7-2.2-3.4-4.5s0,0,0,0h1.6Z"/>
  <path d="M28.5,12.3h-1.6s0,0,0,0c-.5-4.1-2.8-6.4-6.9-6.8,0,0,0,0,0,0v-1.6s0,0,0,0c3.9-.7,8.8,4,8.6,8.5,0,0,0,0,0,0Z"/>
</svg>