<?xml version="1.0" encoding="UTF-8"?>
<svg id="Capa_2" data-name="Capa 2" xmlns="http://www.w3.org/2000/svg" viewBox="0 0 247.6 52.4">
  <g id="header">
    <g>
      <g>
        <path d="M41.3,20.3c.4-2,1.9-2.7,3.2-2.6,1.4.2,2.5,1.4,2.5,2.8,0,1.4-1.1,2.6-2.5,2.7-1.4.1-2.9-.7-3.1-2.5-.3,1.5-1.1,2.6-2.6,2.8-1.5.3-2.6-.4-3.4-1.7-.4.9-1.1,1.5-2,1.8.8.4,1.4,1,1.6,1.8.2.6.2,1.3,0,1.9-.4,1.3-1.6,2.1-2.9,2.1-1.3,0-2.4-.9-2.8-2.2-.4-1.4.1-2.6,1.6-3.6-.8-.3-1.4-.9-1.8-1.6-.5.8-1.2,1.4-2.2,1.6,1,.4,1.6,1,1.9,1.9.2.6.2,1.2,0,1.8-.4,1.2-1.6,2-2.8,1.9-1.3,0-2.4-1-2.6-2.3-.1-.7,0-1.4.3-2,.4-.6.9-1,1.7-1.3-1.2-.4-2-1.1-2.4-2.3-.8,1.5-2,2.3-3.7,1.8-1.2-.3-1.9-1.4-2.1-2.6,0-.7.1-1.3.5-1.9.4-.6.9-.9,1.6-1.2-1.4-.5-2.3-1.4-2.4-2.9-.1-1.6.7-2.6,2.1-3.3-1.4-.7-2.2-1.9-1.9-3.5.2-1.2,1.1-2.2,2.3-2.5,1.5-.3,2.7.2,3.6,1.5.7-1.2,1.7-2,3.1-2,1.4,0,2.5.6,3.2,1.8,1.8-2.7,5.8-1.8,6.3,1.4.1-.8.5-1.3,1-1.8.6-.4,1.2-.6,1.9-.5,1.2.1,2.2,1.1,2.3,2.3.2,1.3-.6,2.4-2.1,3,1.6.4,2.5,1.4,2.9,3,.5-1.9,2-2.3,3-2.1,1.3.2,2.2,1.3,2.1,2.6,0,1.3-1,2.3-2.2,2.5-1.3.2-2.6-.6-2.9-2-.2.5-.3,1.1-.7,1.5-.4.5-.8.8-1.4,1.1,1,.6,1.6,1.4,1.8,2.6M37.6,11.1c-1.1-.4-1.8-1.1-2-2.3-.2,1.1-.7,2-1.8,2.6.6.3,1.1.8,1.4,1.4.6-.9,1.4-1.5,2.4-1.7M22.9,16.2c-.5.7-1.1,1.2-1.9,1.4.3.2.6.3.8.4.2.2.5.4.7.6.2.2.3.5.5.8.3-.8.7-1.4,1.4-1.8-.6-.4-1.1-.8-1.4-1.5M22.9,10c-.4.7-.9,1.2-1.7,1.5.2.1.4.2.6.4.2.1.4.3.6.5.2.2.3.3.4.5.2-.3.4-.5.6-.7.2-.2.4-.4.7-.6-.5-.4-.9-.8-1.2-1.5M35.3,19.1c.3-.7.8-1.1,1.5-1.5-.7-.3-1.2-.8-1.6-1.5-.3.6-.7,1-1.3,1.3.6.4,1.1.9,1.4,1.6M28,17.7c.3.4.7.7,1.1,1.1.3-.5.7-1,1.3-1.3-.2-.2-.4-.3-.6-.5-.2-.2-.3-.4-.5-.5-.4.4-.8.8-1.2,1.2M28.2,11.5c.3.4.7.7,1.1,1.1.2-.2.3-.4.5-.6.2-.2.4-.3.6-.5-.4-.4-.8-.8-1.2-1.2-.3.4-.7.8-1,1.1"/>
        <path d="M8.1,41.5c1.7,0,3.1,1.4,3.1,3.1,0,1.7-1.4,3.1-3.1,3.1-1.7,0-3.1-1.4-3.1-3.1,0-1.7,1.4-3.1,3.1-3.1"/>
        <path d="M40.9,26.6c0,1.5-1.3,2.8-2.8,2.8-1.5,0-2.8-1.3-2.8-2.8,0-1.5,1.3-2.8,2.8-2.8,1.5,0,2.8,1.3,2.8,2.8"/>
        <path d="M8.1,41.7c-1.7,0-3.1-1.4-3.1-3.1,0-1.7,1.4-3.1,3.1-3.1,1.7,0,3.1,1.4,3.1,3.1,0,1.7-1.4,3.1-3.1,3.1"/>
        <path d="M11.5,8.5c0-1.4,1.2-2.6,2.6-2.6,1.4,0,2.6,1.2,2.6,2.6,0,1.4-1.2,2.6-2.6,2.6-1.4,0-2.6-1.2-2.6-2.6"/>
        <path d="M46.7,26.5c0,1.4-1.1,2.6-2.6,2.6-1.4,0-2.6-1.1-2.6-2.6,0-1.4,1.1-2.6,2.6-2.6,1.4,0,2.6,1.1,2.6,2.6"/>
        <path d="M16.6,14.5c0,1.4-1.2,2.5-2.6,2.5-1.4,0-2.5-1.2-2.5-2.5,0-1.4,1.2-2.6,2.6-2.5,1.4,0,2.5,1.2,2.5,2.6"/>
        <path d="M23,26.5c0,1.6-1.3,2.9-2.9,2.9-1.6,0-2.9-1.3-2.9-2.9,0-1.6,1.3-2.8,2.9-2.9,1.6,0,2.9,1.3,2.9,2.9"/>
        <path d="M10.5,8.5c0,1.3-1.1,2.4-2.4,2.4-1.3,0-2.4-1.1-2.4-2.4,0-1.3,1.1-2.4,2.4-2.4,1.3,0,2.4,1.1,2.4,2.4"/>
        <path d="M11.8,44.6c0-1.3,1-2.3,2.3-2.3,1.3,0,2.3,1,2.3,2.3,0,1.3-1,2.3-2.3,2.3-1.3,0-2.3-1-2.3-2.3"/>
        <path d="M30,32.6c0-1.2,1-2.1,2.2-2.1,1.2,0,2.1,1,2.1,2.1,0,1.2-1,2.1-2.1,2.1-1.2,0-2.1-1-2.1-2.2"/>
        <path d="M24,32.6c0-1.2.9-2.1,2.1-2.1,1.2,0,2.2,1,2.1,2.1,0,1.2-1,2.1-2.1,2.1-1.2,0-2.1-.9-2.1-2.1"/>
        <path d="M18,44.6c0-1.2,1-2.1,2.1-2.1,1.1,0,2.1,1,2.1,2.1,0,1.2-.9,2.1-2.1,2.1-1.2,0-2.1-.9-2.1-2.1"/>
        <path d="M11.8,38.6c0-1.3,1-2.3,2.3-2.3,1.3,0,2.3,1.1,2.3,2.3,0,1.3-1.1,2.3-2.3,2.3-1.3,0-2.3-1-2.3-2.3"/>
        <path d="M4.1,44.6c0,1.1-.9,2-2.1,2C.9,46.6,0,45.7,0,44.6c0-1.1.9-2,2.1-2,1.1,0,2,.9,2,2.1"/>
        <path d="M36.1,32.6c0-1.1.9-2,2-2,1.1,0,2.1.9,2.1,2,0,1.1-.9,2-2,2.1-1.1,0-2-.9-2.1-2"/>
        <path d="M14.1,22.5c-1.1,0-2-.9-2-2,0-1.1.9-2,2-2,1.1,0,2,.9,2,2.1,0,1.1-.9,2-2,2"/>
        <path d="M28.6,2.5c0,1.4-1.1,2.5-2.5,2.5-1.4,0-2.5-1.1-2.5-2.5C23.6,1.1,24.7,0,26.1,0c1.4,0,2.5,1.1,2.5,2.5"/>
        <path d="M8.1,16.5c-1.1,0-2-.9-2-2,0-1.1.9-2,2-2,1.1,0,2,.9,2,2,0,1.1-.9,2-2,2"/>
        <path d="M17.9,2.5c0-1.2,1-2.2,2.2-2.2,1.2,0,2.2,1,2.2,2.2,0,1.2-1,2.2-2.2,2.2-1.2,0-2.2-1-2.2-2.2"/>
        <path d="M2.1,36.7c1.1,0,1.9.8,1.9,1.9,0,1.1-.9,1.9-1.9,1.9-1,0-1.9-.9-1.9-1.9,0-1,.9-1.9,1.9-1.9"/>
        <path d="M22.2,32.6c0,1.2-.9,2.1-2.1,2.1-1.2,0-2.2-1-2.2-2.1,0-1.2,1-2.1,2.1-2.1,1.2,0,2.1.9,2.1,2.1"/>
        <path d="M46,32.6c0,1-.8,1.8-1.9,1.8-1,0-1.8-.8-1.8-1.8,0-1,.8-1.8,1.9-1.8,1,0,1.8.8,1.8,1.9"/>
        <path d="M34.3,2.5c0,1.2-1,2.2-2.2,2.2-1.2,0-2.2-1-2.2-2.2,0-1.2,1-2.2,2.2-2.2,1.2,0,2.2,1,2.1,2.2"/>
        <path d="M39.8,38.6c0,.9-.8,1.7-1.7,1.6-.9,0-1.6-.8-1.6-1.7,0-.9.8-1.7,1.7-1.7.9,0,1.7.8,1.6,1.7"/>
        <path d="M26.1,46.2c-.9,0-1.6-.7-1.6-1.7,0-.9.7-1.6,1.7-1.6.9,0,1.6.7,1.6,1.7,0,.9-.7,1.6-1.7,1.6"/>
        <path d="M15.7,2.5c0,.9-.7,1.6-1.6,1.6-.9,0-1.7-.7-1.7-1.6s.7-1.6,1.7-1.6c.9,0,1.6.7,1.6,1.6"/>
        <path d="M8.1,33.7c-.6,0-1.2-.5-1.2-1.2s.5-1.2,1.2-1.2c.7,0,1.2.5,1.2,1.2,0,.6-.5,1.2-1.2,1.2"/>
        <path d="M8,52.4c-1,0-1.8-.8-1.8-1.8,0-1,.8-1.8,1.9-1.8,1,0,1.8.8,1.8,1.8,0,1-.8,1.8-1.9,1.8"/>
        <path d="M8.1,4c-.9,0-1.6-.7-1.6-1.6,0-.9.7-1.6,1.6-1.6.9,0,1.6.7,1.6,1.6,0,.9-.7,1.6-1.6,1.6"/>
        <path d="M3.6,8.5c0,.9-.7,1.6-1.5,1.6-.9,0-1.6-.7-1.6-1.6,0-.9.7-1.6,1.6-1.5.9,0,1.5.7,1.6,1.6"/>
        <path d="M44.1,37c.9,0,1.6.7,1.6,1.5,0,.9-.7,1.6-1.6,1.6-.9,0-1.6-.7-1.6-1.6,0-.9.7-1.6,1.6-1.6"/>
        <path d="M20,40.3c-1,0-1.7-.8-1.7-1.8,0-1,.8-1.7,1.8-1.7.9,0,1.7.8,1.7,1.8,0,1-.8,1.8-1.8,1.7"/>
        <path d="M12.7,26.5c0-.8.6-1.4,1.4-1.4.8,0,1.4.6,1.4,1.4,0,.8-.6,1.4-1.4,1.4-.8,0-1.4-.6-1.4-1.4"/>
        <path d="M51.5,26.5c0,.7-.6,1.4-1.3,1.4-.7,0-1.4-.6-1.4-1.4,0-.7.6-1.3,1.3-1.4.8,0,1.4.6,1.4,1.4"/>
        <path d="M2,15.9c-.7,0-1.3-.6-1.4-1.3,0-.8.6-1.4,1.4-1.4.7,0,1.3.6,1.4,1.3,0,.8-.6,1.4-1.4,1.4"/>
        <path d="M51.5,20.5c0,.8-.6,1.3-1.3,1.3-.7,0-1.4-.6-1.3-1.4,0-.7.6-1.3,1.3-1.3.8,0,1.3.6,1.4,1.3"/>
        <path d="M3.4,32.6c0,.7-.6,1.3-1.4,1.3-.7,0-1.3-.6-1.3-1.3,0-.7.6-1.3,1.3-1.3.8,0,1.3.6,1.3,1.3"/>
        <path d="M21.4,50.6c0,.7-.6,1.3-1.3,1.3-.7,0-1.3-.6-1.3-1.3,0-.7.6-1.3,1.3-1.3.7,0,1.3.6,1.3,1.3"/>
        <path d="M42.2,8.5c0-1.1.9-2,2-2,1.1,0,2,.9,2,2,0,1.1-1,2-2.1,2-1.1,0-2-.9-1.9-2"/>
        <path d="M26.1,49.4c.7,0,1.2.6,1.2,1.2,0,.7-.6,1.2-1.2,1.2-.7,0-1.2-.6-1.2-1.3,0-.7.6-1.2,1.3-1.2"/>
        <path d="M15.5,50.6c0,.8-.6,1.4-1.4,1.4-.8,0-1.4-.6-1.4-1.4,0-.7.6-1.4,1.4-1.4.8,0,1.4.6,1.4,1.4"/>
        <path d="M2.1,51.8c-.7,0-1.2-.5-1.2-1.2,0-.6.5-1.1,1.1-1.2.7,0,1.2.5,1.2,1.1,0,.6-.5,1.2-1.2,1.2"/>
        <path d="M38.1,45.7c-.6,0-1.1-.5-1.1-1.2,0-.6.5-1.1,1.1-1.1.6,0,1.1.5,1.1,1.1,0,.6-.5,1.1-1.2,1.1"/>
        <path d="M32.1,45.7c-.6,0-1.1-.5-1.1-1.2,0-.6.5-1.1,1.1-1.1.6,0,1.1.5,1.1,1.1,0,.6-.5,1.1-1.2,1.1"/>
        <path d="M14.1,31.4c.6,0,1.1.5,1.1,1.1,0,.6-.5,1.1-1.1,1.1-.6,0-1.1-.5-1.1-1.1,0-.6.5-1.1,1.1-1.1"/>
        <path d="M32.1,37.6c.6,0,1,.4,1,1,0,.6-.4,1-1,1-.6,0-1.1-.5-1.1-1,0-.6.5-1,1-1"/>
        <path d="M2.1,1.5c.6,0,1,.5,1,1,0,.6-.5,1-1.1,1-.6,0-1-.5-1-1,0-.6.5-1,1-1"/>
        <path d="M50.2,31.6c.5,0,.9.4.9.9,0,.5-.4.9-.9.9-.5,0-.9-.4-.9-.9,0-.5.4-.9.9-.9"/>
        <path d="M27,38.6c0,.5-.4.9-.9.9-.5,0-.9-.4-.9-.9s.4-.9.9-.9c.5,0,.9.4.9.9"/>
        <path d="M9.3,20.5c0,.6-.5,1.2-1.2,1.2s-1.2-.5-1.2-1.2c0-.7.6-1.2,1.2-1.2.6,0,1.2.6,1.1,1.2"/>
        <path d="M44.9,44.6c0,.4-.4.8-.8.7-.4,0-.8-.4-.7-.8,0-.4.4-.8.8-.7.4,0,.8.4.7.8"/>
        <path d="M38.2,3.5c-.6,0-1-.5-1-1,0-.6.5-1,1-1,.6,0,1,.4,1,1,0,.6-.4,1-1,1"/>
        <path d="M32.8,50.6c0,.4-.3.7-.7.7-.4,0-.7-.3-.7-.7,0-.4.3-.6.7-.7.4,0,.7.3.7.7"/>
        <path d="M50.2,13.6c.5,0,.9.4.9.9,0,.5-.4.9-.9,1-.5,0-1-.4-1-.9,0-.5.4-.9.9-.9"/>
        <path d="M2.8,20.5c0,.4-.3.7-.7.7-.4,0-.7-.3-.8-.7,0-.4.3-.7.7-.8.4,0,.7.3.8.7"/>
        <path d="M8.1,25.8c.4,0,.8.4.8.8,0,.4-.4.8-.8.7-.4,0-.8-.4-.7-.8,0-.4.4-.8.8-.7"/>
        <path d="M2.8,26.5c0,.4-.3.8-.8.8s-.8-.4-.8-.8c0-.4.3-.7.7-.7.4,0,.8.3.8.7"/>
        <path d="M50.2,38.2c.2,0,.4.1.4.3,0,.2-.1.4-.3.4-.2,0-.4-.2-.4-.4,0-.2.2-.4.4-.4"/>
        <path d="M38.4,50.6c-.1,0-.2.2-.3.2-.1,0-.2,0-.2-.2,0-.1,0-.2.2-.2,0,0,.1.1.3.2"/>
      </g>
      <g>
        <path d="M74.6,33.3c-.2,0-.3-.2-.3-.3v-15.2c0-.2.2-.3.3-.3h6.7c5,0,8.7,3.1,8.7,7.9s-3.2,7.9-8.7,7.9h-6.7ZM77.9,20.5v9.8h3.4c3.3,0,5.1-1.9,5.1-4.9s-2.2-4.9-5.2-4.9h-3.4Z"/>
        <path d="M94.6,17.5h2.9c.2,0,.3.1.3.3v15.2c0,.2-.1.3-.3.3h-2.9c-.2,0-.3-.1-.3-.3v-15.2c0-.2.1-.3.3-.3Z"/>
        <path d="M108.7,25.5c.6,1.1,1,2.6,1,2.6h.2s.5-1.5,1-2.6l3.7-7.6c.2-.3.2-.3.6-.3h3.2c.2,0,.2,0,.2.2s0,.2-.2.4l-7.3,15.2h-2.5l-7.3-15.2c0-.2-.2-.3-.2-.4s0-.2.2-.2h3.2c.3,0,.4,0,.6.3l3.7,7.6Z"/>
        <path d="M131.4,26.8v3.6h-9.3c-.2,0-.4.2-.4.4v2.3c0,.2.2.4.4.4h12.5c.2,0,.3-.2.3-.3v-15.2c0-.2-.2-.3-.3-.3h-12.4c-.2,0-.4.2-.4.4v2.3c0,.2.2.4.4.4h9.1v3.2h-8.3c-.2,0-.4.2-.4.4v2.3c0,.2.2.4.4.4h8.3Z"/>
        <path d="M139.4,17.9c0-.2.2-.3.3-.3h7.3c3.8,0,6.6,2.1,6.6,5.5s-1.4,4-3.6,4.7h0c0,0,.5.6.8,1.1l2.7,3.9c.1.2.2.3.2.3,0,.1,0,.2-.2.2h-3.5c-.1,0-.3-.1-.4-.3l-3.2-4.7h-3.4v4.6c0,.2-.2.3-.3.3h-2.9c-.2,0-.3-.2-.3-.3v-15.2ZM143,20.5v5h3.8c2,0,3.2-.9,3.2-2.5s-1.3-2.5-3.2-2.5h-3.8Z"/>
        <path d="M173.9,26.2c0,4.1-2.9,7.4-8.3,7.4s-8.7-3.2-8.7-8.2,3.8-8.2,8.7-8.2,7.7,3.3,7.8,5.7c0,.2-.1.3-.4.3h-2.7c-.2,0-.3,0-.4-.3-.3-1.3-1.5-2.8-4.3-2.8s-5.1,2.1-5.1,5.2,2.4,5.2,5.1,5.2,4.6-1.4,4.7-2.9h-5.8c-.2,0-.4-.2-.4-.4v-2c0-.2.2-.4.4-.4h9.5v1.3Z"/>
        <path d="M187.8,26.8v3.6h-9.3c-.2,0-.4.2-.4.4v2.3c0,.2.2.4.4.4h12.5c.2,0,.3-.2.3-.3v-15.2c0-.2-.2-.3-.3-.3h-12.4c-.2,0-.4.2-.4.4v2.3c0,.2.2.4.4.4h9.1v3.2h-8.3c-.2,0-.4.2-.4.4v2.3c0,.2.2.4.4.4h8.3Z"/>
        <path d="M209.3,33.3l-8.1-8.2c-.8-.8-1.8-2-1.8-2h0v9.9c0,.2-.2.3-.3.3h-2.9c-.2,0-.3-.2-.3-.3v-15.2c0-.2.2-.3.3-.3h2.4l8,8.1c.9.9,1.8,2.1,1.8,2.1h.1v-9.9c0-.2.2-.3.3-.3h2.9c.2,0,.3.2.3.3v15.2c0,.2-.2.3-.3.3h-2.4Z"/>
        <path d="M215.7,20.5c-.2,0-.4-.2-.4-.4v-2.3c0-.2.2-.4.4-.4h15c.2,0,.4.2.4.4v2.3c0,.2-.2.4-.4.4h-5.7v12.5c0,.2-.2.3-.3.3h-2.9c-.2,0-.3-.2-.3-.3v-12.5h-5.7Z"/>
        <path d="M244,26.8v3.6h-9.3c-.2,0-.4.2-.4.4v2.3c0,.2.2.4.4.4h12.5c.2,0,.3-.2.3-.3v-15.2c0-.2-.2-.3-.3-.3h-12.4c-.2,0-.4.2-.4.4v2.3c0,.2.2.4.4.4h9.1v3.2h-8.3c-.2,0-.4.2-.4.4v2.3c0,.2.2.4.4.4h8.3Z"/>
      </g>
    </g>
  </g>
</svg>