<?xml version="1.0" encoding="UTF-8"?>
<svg id="Capa_1" data-name="Capa 1" xmlns="http://www.w3.org/2000/svg" viewBox="0 0 40 40">
  <path d="M26,10c0,0,0-.1-.1-.2-2.1-2.1-4.6-2.9-7.5-2.3-2.1.4-3.9,1.5-5,3.2-1.1,1.6-1.4,3.5-.9,5.3.6,2.2,2,3.8,4.2,4.7,1,.5,2.1.7,3.2.7,2.2,0,4.4-.8,5.8-2.4,1-1,1.6-2.2,1.8-3.6.4-2-.2-3.7-1.5-5.3h0ZM17.9,19.1c-1.8-.8-2.9-2-3.3-3.7-.3-1.3,0-2.8.9-4,1-1.2,2.4-2,4-2.1,2-.2,3.6.5,5,1.9,1.3,1.7,1.6,3.4.8,5.2-1.1,2.4-3.9,3.6-6.6,2.9-.2,0-.3,0-.5-.1h-.2Z"/>
  <path d="M32.1,6.3c-.9-1.3-2.1-2.2-3-2.8-2.3-1.6-5-2.6-8-2.7-3.1-.2-5.9.4-8.4,1.8-4.8,2.6-7.4,6.5-7.6,11.5-.1,2.5.5,5.1,1.9,8.3v.2c.6,1.1,1.1,2.2,1.8,3.2l.2.3c.1.3.3.5.4.8,2.6,4.2,5.9,8.3,9.8,12.1.3.3.6.4.9.4h0c.3,0,.6-.1.9-.5,1.8-1.8,5.6-7.3,6.8-8.7.9-1,1.7-2.1,2.4-3,.4-.5.3-1-.2-1.4-.5-.3-1.1-.2-1.5.3-.1.1-.2.3-.4.5v.2c-1.7,2.1-5.9,8.1-7.9,10.2-.1.1-.2.1-.2.1,0,0,0,0,0,0l-.4-.4c-1-1.1-2-2.2-3-3.3-1.5-1.7-2.8-3.4-4.1-5.3-.5-.7-.9-1.4-1.4-2.2-.2-.3-.4-.7-.6-1l-.4-.7c-.3-.5-.5-1-.8-1.6-1.1-2.3-2.3-5.3-2.1-8.6.2-2.9,1.4-5.5,3.6-7.5,2.9-2.7,6.4-3.8,10.5-3.5,2.2.2,4.2.8,6.1,2,1.1.7,2,1.6,3,2.7h0c0,.1,0,.2.1.2,2.1,2.8,2.7,5.8,2,9.3-.3,1.4-.7,2.8-1.3,4.3-.3.7-.1,1.2.5,1.4.3.1.5.1.8,0,.3-.1.5-.4.7-.7.9-2.2,1.5-4.2,1.7-6.3.3-3.5-.6-6.7-2.9-9.4Z"/>
</svg>