<?xml version="1.0" encoding="UTF-8"?>
<svg id="Capa_1" data-name="Capa 1" xmlns="http://www.w3.org/2000/svg" viewBox="0 0 40 40">
  <defs>
    <style>
      .cls-1 {
        stroke: #000;
        stroke-miterlimit: 10;
        stroke-width: .5px;
      }
    </style>
  </defs>
  <path class="cls-1" d="M40,19.9c0,5.4-1.9,10-5.5,13.8-3.1,3.3-6.9,5.3-11.4,6-4.2.7-8.3,0-12.1-2-.3-.1-.5-.2-.8,0-3,.7-5.9,1.5-8.9,2.2-1,.2-1.5-.3-1.2-1.2.8-2.8,1.6-5.7,2.4-8.5,0-.3,0-.5,0-.8C.9,26.5,0,23.5,0,20.3c0-5.3,1.8-10,5.4-13.9C8.3,3.3,11.8,1.3,15.9.4,20.1-.4,24.2,0,28.1,1.8c4.4,2,7.6,5.1,9.8,9.4,1.2,2.5,1.9,5.1,2,7.9,0,.3,0,.6,0,.9ZM2.1,37.9c.2,0,.3,0,.5,0,2.5-.6,5.1-1.3,7.6-1.9.4,0,.7,0,1.1,0,3.5,1.9,7.2,2.6,11.1,2.1,4.1-.5,7.7-2.3,10.6-5.2,4.3-4.4,6-9.7,5.1-15.8-.7-4.7-3-8.5-6.7-11.4-3.7-2.9-8-4.2-12.7-3.8-2,.1-3.9.6-5.8,1.4-4.4,1.9-7.6,5.1-9.6,9.6-1.3,2.9-1.7,6-1.4,9.2.3,2.5,1,4.9,2.3,7.1.2.3.2.7.1,1.1-.5,1.8-1,3.5-1.5,5.3-.2.8-.4,1.6-.7,2.5Z"/>
  <path class="cls-1" d="M13.3,9.6c.3,0,.5,0,.7,0,.8,0,1.3.5,1.6,1.2.6,1.4,1.2,2.8,1.7,4.1.2.5.2,1,0,1.5-.3.7-.8,1.2-1.2,1.7-.2.2-.2.3,0,.5,1.5,2.4,3.6,4.2,6.2,5.3.2,0,.3,0,.5-.1.5-.6.9-1.1,1.4-1.7.5-.6,1.1-.8,1.9-.6,1,.4,2,.9,2.9,1.3.4.2.9.4,1.3.6.7.3,1,.8,1,1.6,0,3.2-2.2,4.8-4.9,5.3-2.1.4-4-.4-5.8-1.1-3.8-1.5-6.7-4.3-9.2-7.5-1-1.3-1.9-2.6-2.4-4.2-.8-2.6-.3-5,1.6-7,.7-.8,1.6-1,2.6-.9ZM25.3,28.7c.2,0,.5,0,.7,0,1.8-.1,3.3-1.5,3.5-3.2,0-.3,0-.4-.3-.5-1.2-.6-2.4-1.1-3.5-1.7-.3-.1-.4,0-.6.2-.4.6-1,1.2-1.5,1.8-.5.6-1.1.7-1.8.4-3.3-1.3-5.8-3.4-7.6-6.4-.4-.8-.3-1.4.3-2,.4-.4.8-.8,1.1-1.3,0-.2.1-.3,0-.5-.5-1.2-1-2.4-1.5-3.7,0-.1,0-.2-.2-.3-.4-.2-1.6,0-1.9.3-1.5,1.4-1.9,3.2-1.3,5.2.5,1.5,1.4,2.8,2.3,4.1,2.2,2.9,4.8,5.3,8.3,6.7,1.3.5,2.6,1.1,4.1,1.1Z"/>
</svg>